<svg preserveAspectRatio="xMidYMin slice" viewBox="0 0 375 635" xmlns="http://www.w3.org/2000/svg"><g fill-rule="evenodd"><rect height="140" rx="7" width="105" x="15" y="15"/><rect height="140" rx="7" width="105" x="135" y="15"/><rect height="140" rx="7" width="105" x="255" y="15"/><rect height="140" rx="7" width="105" x="15" y="170"/><rect height="140" rx="7" width="105" x="135" y="170"/><rect height="140" rx="7" width="105" x="255" y="170"/><rect height="140" rx="7" width="105" x="15" y="325"/><rect height="140" rx="7" width="105" x="135" y="325"/><rect height="140" rx="7" width="105" x="255" y="325"/><rect height="140" rx="7" width="105" x="15" y="480"/><rect height="140" rx="7" width="105" x="135" y="480"/><rect height="140" rx="7" width="105" x="255" y="480"/></g></svg>