<?xml version="1.0" encoding="UTF-8"?>
<svg width="72px" height="72px" viewBox="0 0 72 72" version="1.1" xmlns="http://www.w3.org/2000/svg" xmlns:xlink="http://www.w3.org/1999/xlink">
    <title>Filled / filled_messages_paid</title>
    <g id="Filled-/-filled_messages_paid" stroke="none" stroke-width="1" fill="none" fill-rule="evenodd">
        <path d="M37,10 C52.463973,10 65,21.4663378 65,35.6107823 C65,49.7552269 52.463973,61.2215647 37,61.2215647 C32.7870486,61.2215647 28.7914142,60.3705139 25.207379,58.8461165 C24.1368559,59.6933432 23.1748501,60.3353369 22.3210002,60.7730362 C19.7287821,62.1018554 17.9881755,62.5763039 14.0426709,62.9909425 C12.9735031,63.1033029 12.2617637,62.1488613 13.0946899,61.3163422 C14.9395338,59.4723998 15.9349856,56.1700456 16.4417335,52.996482 C11.8223266,48.4305311 9,42.3221275 9,35.6107823 C9,21.4663378 21.536027,10 37,10 Z M37.0894977,18.3137255 C36.1945205,18.3137255 34.9611508,19.0511415 34.9611508,20.3441351 L34.9611508,21.8184747 C29.5912877,22.3157799 26.4492136,25.5383179 26.4492136,30.1334183 C26.4492136,34.0992015 28.7665593,36.659111 33.3641249,37.7017478 L37.4276002,38.5876073 C40.2915271,39.2042658 41.4251649,40.079523 41.4251649,41.5714388 C41.4251649,43.4810909 39.9136479,44.7343001 37.1093861,44.7343001 C35.1006596,44.7343001 33.1515982,43.8988273 31.3815322,42.2875583 C30.2478945,41.3327322 29.5319127,41.0542413 28.6568239,41.0542413 C27.2447489,41.0542413 26.1111111,41.9294985 26.1111111,43.4810909 C26.1111111,44.6746234 26.7475393,45.8283716 27.8612887,46.8428743 C29.5120244,48.3745744 31.8608469,49.3095083 34.8838809,49.568107 L34.8838809,51.0271867 C34.8838809,52.3002881 36.1348554,53.0329768 37.0298326,53.0329768 C37.9248097,53.0329768 39.1337238,52.3002881 39.1337238,51.0271867 L39.1337238,49.5283226 C44.7024707,48.8718796 47.8888889,45.6095573 47.8888889,40.8951036 C47.8888889,36.9078207 45.5311188,34.4419726 40.7412117,33.423178 L36.6519533,32.5801601 C34.1261289,32.0828548 32.9726027,31.1280288 32.9726027,29.636113 C32.9726027,27.9651674 34.4642314,26.6323894 36.8110604,26.6323894 C38.7998985,26.6323894 40.231862,27.2689401 41.9223744,28.8802091 C42.9167935,29.7355741 43.7322171,30.1135261 44.8061898,30.1135261 C46.0591578,30.1135261 47.0933536,29.1984844 47.0933536,27.8855986 C47.0933536,26.7716349 46.4967022,25.5979945 45.3829528,24.5437074 C43.9112126,23.1114683 41.8561485,22.1964267 39.2109937,21.8582591 L39.2109937,20.3441351 C39.2109937,19.0710337 37.9844749,18.3137255 37.0894977,18.3137255 Z" id="Shape" fill="#FFFFFF"></path>
    </g>
</svg>