<?xml version="1.0" encoding="UTF-8"?>
<svg width="72px" height="72px" viewBox="0 0 72 72" version="1.1" xmlns="http://www.w3.org/2000/svg" xmlns:xlink="http://www.w3.org/1999/xlink">
    <title>Filled / filled_crown_on</title>
    <g id="Filled-/-filled_crown_on" stroke="none" stroke-width="1" fill="none" fill-rule="evenodd">
        <path d="M14.6473794,53.5 L15.4179188,56.629413 C15.8990136,58.5956032 16.710844,60.0821321 17.8534101,61.0889997 C18.9959762,62.0958674 20.6037454,62.5993012 22.6767178,62.5993012 L49.3436561,62.5993012 C51.4163568,62.5993012 53.0235827,62.0998068 54.1653339,61.1008181 C55.307085,60.1018294 56.1202737,58.611361 56.6048999,56.629413 L57.3729944,53.5 L14.6473794,53.5 Z M13.7733408,48.248019 L58.2938929,48.248019 L62.8527479,24.7014173 L60.3451332,23.3398639 L49.2267101,36.2899039 C48.5212313,36.7971413 47.9385389,36.7074849 47.4786329,36.0209349 L36.8357358,15.181954 L35.2107167,15.1346807 L24.5148475,36.0637254 C24.3162702,36.3598629 24.0889659,36.5401944 23.8329343,36.6047198 C23.5769028,36.6692452 23.2519398,36.5629481 22.8580451,36.2858286 L11.9331737,23.4560095 L9.12198849,24.4646431 L13.7733408,48.248019 Z M10.0701879,29.5098486 C11.1972699,29.5098486 12.2175928,29.2367364 13.1311567,28.6905121 C14.0447206,28.1442878 14.7745802,27.4103965 15.3207355,26.4888382 C15.8668908,25.56728 16.1399684,24.5428886 16.1399684,23.4156642 C16.1399684,22.3213138 15.8668908,21.3134273 15.3207355,20.3920049 C14.7745802,19.4705825 14.0447206,18.7366912 13.1311567,18.190331 C12.2175928,17.6439708 11.1972699,17.3707908 10.0701879,17.3707908 C8.96022004,17.3707908 7.94410771,17.6439708 7.02185097,18.190331 C6.09959422,18.7366912 5.36538821,19.466643 4.81923292,20.3801866 C4.27307764,21.2937301 4,22.305556 4,23.4156642 C4,24.5428886 4.27701659,25.56728 4.83104976,26.4888382 C5.38508294,27.4103965 6.11928895,28.1442878 7.0336678,28.6905121 C7.94804666,29.2367364 8.96022004,29.5098486 10.0701879,29.5098486 Z M36.0220038,19.1390579 C37.1317,19.1390579 38.1433301,18.8658778 39.056894,18.3195176 C39.9704579,17.7731574 40.7003175,17.0387907 41.2464728,16.1164174 C41.7926281,15.194044 42.0657057,14.1700602 42.0657057,13.0444659 C42.0657057,11.9503872 41.7926281,10.9425686 41.2464728,10.0210104 C40.7003175,9.0994521 39.9704579,8.3655608 39.056894,7.81933648 C38.1433301,7.27311216 37.1317,7 36.0220038,7 C34.8946502,7 33.8703204,7.27311216 32.9490144,7.81933648 C32.0277085,8.3655608 31.2939099,9.09551266 30.7476188,10.009192 C30.2013277,10.9228714 29.9281821,11.9346294 29.9281821,13.0444659 C29.9281821,14.1700602 30.2052666,15.194044 30.7594356,16.1164174 C31.3136046,17.0387907 32.0513421,17.7731574 32.9726481,18.3195176 C33.8939541,18.8658778 34.9104059,19.1390579 36.0220038,19.1390579 Z M61.9090307,29.5098486 C63.0189986,29.5098486 64.0346356,29.2367364 64.9559415,28.6905121 C65.8772475,28.1442878 66.6149171,27.4103965 67.1689502,26.4888382 C67.7229834,25.56728 68,24.5428886 68,23.4156642 C68,22.305556 67.7269224,21.2937301 67.1807671,20.3801866 C66.6346118,19.466643 65.9008133,18.7366912 64.9793715,18.190331 C64.0579297,17.6439708 63.0344828,17.3707908 61.9090307,17.3707908 C60.7977045,17.3707908 59.7852595,17.6439708 58.8716956,18.190331 C57.9581317,18.7366912 57.2282042,19.4705825 56.6819131,20.3920049 C56.135622,21.3134273 55.8624764,22.3213138 55.8624764,23.4156642 C55.8624764,24.5428886 56.135622,25.56728 56.6819131,26.4888382 C57.2282042,27.4103965 57.9581317,28.1442878 58.8716956,28.6905121 C59.7852595,29.2367364 60.7977045,29.5098486 61.9090307,29.5098486 Z" id="Shape" fill="#EBF1F5" fill-rule="nonzero"></path>
    </g>
</svg>