<?xml version="1.0" encoding="UTF-8"?>
<svg width="936px" height="372px" viewBox="0 0 936 372" version="1.1" xmlns="http://www.w3.org/2000/svg" xmlns:xlink="http://www.w3.org/1999/xlink">
    <title>Artboard</title>
    <g id="Artboard" stroke="none" stroke-width="1" fill="none" fill-rule="evenodd">
        <path d="M18,0 L918,0 C927.941125,-1.82615513e-15 936,8.0588745 936,18 L936,372 L936,372 L0,372 L0,18 C-1.21743675e-15,8.0588745 8.0588745,1.82615513e-15 18,0 Z" id="Rectangle" fill="#5FAAEC"></path>
        <polygon id="Rectangle-Copy-2" fill="#7CB9EE" points="0 174 936 174 936 177 0 177"></polygon>
        <polygon id="Rectangle-Copy-3" fill="#7CB9EE" points="0 273 936 273 936 276 0 276"></polygon>
        <path d="M761.435964,88.6592138 L771.478099,99.8017237 L553.858106,295.930727 C548.066463,301.150418 539.9943,302.993249 532.5258,300.825966 L532.119044,300.70377 L413.59887,263.880056 C411.40051,263.197035 409.015847,263.562686 407.127113,264.86028 L406.893654,265.027324 L263.453125,372 L239.223633,372 L397.933795,252.997323 C403.585494,248.787978 410.875123,247.474546 417.628101,249.429099 L418.049443,249.555517 L536.569617,286.379231 C539.006357,287.136316 541.653918,286.601162 543.602396,284.973549 L543.815971,284.788217 L761.435964,88.6592138 Z" id="Path" fill="#EDF2F7" fill-rule="nonzero"></path>
        <path d="M795.314982,67.4353073 L779.8954,122.494909 C779.428415,124.1624 777.69808,125.135602 776.030589,124.668617 C775.139155,124.418969 774.403605,123.78815 774.021015,122.945177 L762.501158,97.5630806 L736.586243,86.8248747 C734.986494,86.1619967 734.227011,84.3277757 734.889889,82.7280273 C735.243557,81.8745066 735.955656,81.2204124 736.836083,80.9403628 L791.345315,63.6018445 C792.995493,63.0769492 794.758738,63.989171 795.283633,65.6393489 C795.469008,66.2221336 795.479904,66.8464081 795.314982,67.4353073 Z" id="Triangle" fill="#EDF2F7"></path>
        <path d="M85,226.6875 C89.6183333,226.6875 93.6983333,227.825 97.0133333,229.3125 C100.073333,230.7125 102,233.8625 102,237.275 L102,239.083333 C102,240.6875 100.725,242 99.1666667,242 L70.8333333,242 C69.275,242 68,240.6875 68,239.083333 L68,237.304167 C68,233.8625 69.9266667,230.7125 72.9866667,229.341667 C76.3016667,227.825 80.3816667,226.6875 85,226.6875 Z" id="Path" fill="#FFFFFF" fill-rule="nonzero"></path>
        <path d="M62.3333333,227.416667 C65.45,227.416667 68,224.791667 68,221.583333 C68,218.375 65.45,215.75 62.3333333,215.75 C59.2166667,215.75 56.6666667,218.375 56.6666667,221.583333 C56.6666667,224.791667 59.2166667,227.416667 62.3333333,227.416667 Z" id="Path" fill="#FFFFFF" fill-rule="nonzero"></path>
        <path d="M65.535,230.625 C64.4866667,230.45 63.4383333,230.333333 62.3333333,230.333333 C59.5283333,230.333333 56.865,230.945833 54.4566667,232.025 C52.36,232.958333 51,235.058333 51,237.420833 L51,239.083333 C51,240.6875 52.275,242 53.8333333,242 L63.75,242 L63.75,237.304167 C63.75,234.883333 64.4016667,232.608333 65.535,230.625 Z" id="Path" fill="#FFFFFF" fill-rule="nonzero"></path>
        <path d="M107.666667,227.416667 C110.783333,227.416667 113.333333,224.791667 113.333333,221.583333 C113.333333,218.375 110.783333,215.75 107.666667,215.75 C104.55,215.75 102,218.375 102,221.583333 C102,224.791667 104.55,227.416667 107.666667,227.416667 Z" id="Path" fill="#FFFFFF" fill-rule="nonzero"></path>
        <path d="M119,237.420833 C119,235.058333 117.64,232.958333 115.543333,232.025 C113.135,230.945833 110.471667,230.333333 107.666667,230.333333 C106.561667,230.333333 105.513333,230.45 104.465,230.625 C105.598333,232.608333 106.25,234.883333 106.25,237.304167 L106.25,242 L116.166667,242 C117.725,242 119,240.6875 119,239.083333 L119,237.420833 Z" id="Path" fill="#FFFFFF" fill-rule="nonzero"></path>
        <path d="M85,207 C89.7033333,207 93.5,210.908333 93.5,215.75 C93.5,220.591667 89.7033333,224.5 85,224.5 C80.2966667,224.5 76.5,220.591667 76.5,215.75 C76.5,210.908333 80.2966667,207 85,207 Z" id="Path" fill="#FFFFFF" fill-rule="nonzero"></path>
        <path d="M93.3333333,326.5625 C88.8055556,326.5625 84.8055556,327.635 81.5555556,329.0375 C78.5555556,330.3575 76.6666667,333.3275 76.6666667,336.545 L76.6666667,338.25 C76.6666667,339.7625 77.9166667,341 79.4444444,341 L107.222222,341 C108.75,341 110,339.7625 110,338.25 L110,336.5725 C110,333.3275 108.111111,330.3575 105.111111,329.065 C101.861111,327.635 97.8611111,326.5625 93.3333333,326.5625 Z" id="Path" fill="#FFFFFF" fill-rule="nonzero"></path>
        <path d="M71.1111111,327.25 C68.0555556,327.25 65.5555556,324.775 65.5555556,321.75 C65.5555556,318.725 68.0555556,316.25 71.1111111,316.25 C74.1666667,316.25 76.6666667,318.725 76.6666667,321.75 C76.6666667,324.775 74.1666667,327.25 71.1111111,327.25 Z" id="Path" fill="#FFFFFF" fill-rule="nonzero"></path>
        <path d="M60,336.6825 C60,334.455 61.3333333,332.475 63.3888889,331.595 C65.75,330.5775 68.3611111,330 71.1111111,330 C72.1944444,330 73.2222222,330.11 74.25,330.275 C73.1388889,332.145 72.5,334.29 72.5,336.5725 L72.5,341 L62.7777778,341 C61.25,341 60,339.7625 60,338.25 L60,336.6825 Z" id="Path" fill="#FFFFFF" fill-rule="nonzero"></path>
        <path d="M93.3333333,308 C88.7222222,308 85,311.685 85,316.25 C85,320.815 88.7222222,324.5 93.3333333,324.5 C97.9444444,324.5 101.666667,320.815 101.666667,316.25 C101.666667,311.685 97.9444444,308 93.3333333,308 Z" id="Path" fill="#FFFFFF" fill-rule="nonzero"></path>
        <path d="M87,98.0455477 L87,72.383459 C87,70.7266048 85.6568542,69.383459 84,69.383459 C83.8868766,69.383459 83.7738438,69.3898574 83.6614431,69.4026237 L62.1998868,71.8401815 C56.3225603,72.5077157 51.8083031,77.3584871 51.5643264,83.268567 L51.3650937,88.0947718 C51.1519212,93.2586524 54.5624178,97.8745387 59.5611237,99.1875677 L62.6540561,100 L62.6540561,100 L68.1959515,112.965214 C68.9827732,114.805976 70.7916797,116 72.7935523,116 L74.7764398,116 C76.9855788,116 78.7764398,114.209139 78.7764398,112 C78.7764398,111.917906 78.7739125,111.835831 78.7688615,111.753892 L78.201678,102.552916 C78.1337171,101.450439 78.972358,100.501612 80.0748348,100.433651 C80.2370888,100.423649 80.399957,100.433466 80.5598348,100.462886 L83.4570811,100.996012 C85.0865775,101.295858 86.6506184,100.217963 86.9504642,98.5884666 C86.9834196,98.4093722 87,98.227649 87,98.0455477 Z" id="Path-4" fill="#FFFFFF"></path>
        <path d="M95.0253282,68.2104419 L106.542214,61.7096215 C108.946987,60.3522236 111.996828,61.2012888 113.354226,63.6060615 C113.777558,64.3560377 114,65.2026429 114,66.0638478 L114,103.936152 C114,106.697576 111.761424,108.936152 109,108.936152 C108.138795,108.936152 107.29219,108.71371 106.542214,108.290378 L95.0253282,101.789558 C94.0828792,101.257583 93.5,100.259246 93.5,99.1770223 L93.5,70.8229777 C93.5,69.7407544 94.0828792,68.7424166 95.0253282,68.2104419 Z" id="Path-5" fill="#FFFFFF"></path>
    </g>
</svg>