<svg width="277" height="195" viewBox="0 0 277 195" fill="none" xmlns="http://www.w3.org/2000/svg">
<path fill-rule="evenodd" clip-rule="evenodd" d="M274.275 103.333C275.78 103.333 277 104.568 277 106.09V195H201.725C200.22 195 199 193.766 199 192.243V109.536C199 106.111 201.745 103.333 205.131 103.333H274.275ZM71.869 103.333C75.2551 103.333 78 106.111 78 109.536V192.243C78 193.766 76.78 195 75.2751 195H0V106.09C0 104.568 1.21998 103.333 2.72489 103.333H71.869ZM179.467 145C185.1 145 190 149.937 190 155.617V192.258C190 193.772 188.449 195 186.947 195H90.0532C88.551 195 87 193.772 87 192.258V155.617C87 149.937 91.8997 145 97.5327 145H179.467ZM141.438 165.735L136.933 167.554V166.559C136.933 166.237 136.806 166 136.551 165.849C136.296 165.697 136.027 165.678 135.743 165.792L130.02 168.236C129.699 168.369 129.449 168.582 129.269 168.876C129.09 169.169 129 169.487 129 169.828V180.628C129 181.102 129.165 181.504 129.496 181.836C129.826 182.168 130.228 182.333 130.7 182.333H149.967C150.439 182.333 150.84 182.168 151.171 181.836C151.501 181.504 151.667 181.102 151.667 180.628V168.691H142.6V166.531C142.6 166.228 142.477 165.991 142.232 165.82C141.986 165.65 141.722 165.621 141.438 165.735ZM140.5 173.333C140.741 173.333 140.94 173.41 141.097 173.564C141.255 173.717 141.333 173.911 141.333 174.146V176.854C141.333 177.089 141.255 177.283 141.097 177.436C140.94 177.59 140.741 177.667 140.5 177.667C140.259 177.667 140.06 177.59 139.903 177.436C139.745 177.283 139.667 177.089 139.667 176.854V174.146C139.667 173.911 139.745 173.717 139.903 173.564C140.06 173.41 140.259 173.333 140.5 173.333ZM135.833 173.333C136.074 173.333 136.273 173.41 136.431 173.564C136.588 173.717 136.667 173.911 136.667 174.146V176.854C136.667 177.089 136.588 177.283 136.431 177.436C136.273 177.59 136.074 177.667 135.833 177.667C135.593 177.667 135.394 177.59 135.236 177.436C135.079 177.283 135 177.089 135 176.854V174.146C135 173.911 135.079 173.717 135.236 173.564C135.394 173.41 135.593 173.333 135.833 173.333ZM144.833 173.333C145.074 173.333 145.273 173.41 145.431 173.564C145.588 173.717 145.667 173.911 145.667 174.146V176.854C145.667 177.089 145.588 177.283 145.431 177.436C145.273 177.59 145.074 177.667 144.833 177.667C144.593 177.667 144.394 177.59 144.236 177.436C144.079 177.283 144 177.089 144 176.854V174.146C144 173.911 144.079 173.717 144.236 173.564C144.394 173.41 144.593 173.333 144.833 173.333ZM149.659 159.667H148.341C148.14 159.667 147.966 159.735 147.82 159.872C147.673 160.009 147.582 160.178 147.545 160.379L146.667 167.333H151.333L150.455 160.379C150.418 160.178 150.327 160.009 150.18 159.872C150.034 159.735 149.86 159.667 149.659 159.667ZM249.919 140.667H238.414C237.929 140.667 237.516 140.84 237.176 141.185C236.837 141.531 236.667 141.951 236.667 142.444V144.519L242.812 148.904C243.026 149.062 243.201 149.299 243.337 149.615C243.472 149.931 243.54 150.237 243.54 150.533V162H249.919C250.405 162 250.817 161.827 251.157 161.481C251.497 161.136 251.667 160.716 251.667 160.222V142.444C251.667 141.951 251.497 141.531 251.157 141.185C250.817 140.84 250.405 140.667 249.919 140.667ZM233.681 145C233.307 145 232.962 145.109 232.646 145.328L226.406 149.832C226.169 149.991 225.987 150.204 225.859 150.473C225.731 150.741 225.667 151.015 225.667 151.293V161.105C225.667 161.364 225.75 161.577 225.918 161.746C226.086 161.915 226.298 162 226.554 162H231.315V155.409H236.047V162H240.779C241.036 162 241.248 161.915 241.415 161.746C241.583 161.577 241.667 161.364 241.667 161.105V151.293C241.667 151.015 241.603 150.741 241.474 150.473C241.346 150.204 241.164 149.991 240.927 149.832L234.717 145.328C234.401 145.109 234.056 145 233.681 145ZM28.1107 151C26.7011 151.535 25.608 152.177 24.8315 152.926C24.0549 153.676 23.6667 154.508 23.6667 155.423C23.6667 156.314 24.0383 157.129 24.7816 157.869C25.525 158.608 26.5731 159.244 27.926 159.776L28.3615 159.947C29.6189 160.437 31.0759 160.969 32.7325 161.23C34.584 161.521 36.6178 161.667 38.8339 161.667C41.0576 161.667 43.0932 161.521 44.9409 161.23C46.7886 160.939 48.3906 160.308 49.7468 159.776C51.103 159.244 52.1509 158.608 52.8906 157.869C53.6302 157.129 54 156.314 54 155.423C54 154.746 53.7748 154.109 53.3243 153.513C52.8738 152.917 52.2323 152.377 51.3997 151.893C51.0481 152.043 50.6745 152.158 50.2789 152.238C49.8834 152.318 49.4585 152.366 49.0044 152.383C48.0792 153.945 46.7901 155.169 45.1372 156.054C43.4842 156.94 41.5782 157.383 39.419 157.383H38.3735C36.7571 157.383 35.2763 157.121 33.9309 156.599C32.5856 156.076 31.4161 155.338 30.4225 154.384C29.4289 153.431 28.6583 152.303 28.1107 151ZM246.667 155.667V157.333H245V155.667H246.667ZM38.9248 138.333C36.8805 138.333 35.0879 138.525 33.5468 138.908C32.0058 139.291 30.8072 139.825 29.951 140.512C29.0948 141.199 28.6667 142.001 28.6667 142.916V145.217C28.6667 146.653 28.8978 147.969 29.36 149.164C29.8222 150.359 30.4832 151.392 31.3431 152.263C32.2029 153.133 33.2291 153.807 34.4216 154.284C35.6141 154.761 36.9412 155 38.4027 155H39.4444C41.3903 155 43.0928 154.597 44.5519 153.792C46.011 152.987 47.1474 151.85 47.961 150.382C48.038 150.243 48.1113 150.101 48.181 149.958L48.831 149.958C50.1302 149.958 51.1498 149.643 51.8899 149.015C52.63 148.386 53 147.517 53 146.406C53 145.304 52.6298 144.437 51.8893 143.804C51.2167 143.23 50.3138 142.917 49.181 142.864C49.165 141.97 48.7352 141.186 47.8918 140.512C47.032 139.825 45.8315 139.291 44.2904 138.908C42.7493 138.525 40.9607 138.333 38.9248 138.333ZM246.667 150.333V152H245V150.333H246.667ZM49.3463 144.667C49.9217 144.708 50.3794 144.851 50.7196 145.096C51.1287 145.39 51.3333 145.799 51.3333 146.321C51.3333 146.844 51.1285 147.255 50.719 147.553C50.3128 147.849 49.7399 147.998 49 148C49.2306 147.116 49.3458 146.164 49.3458 145.144L49.3463 144.667ZM246.667 145.333V147H245V145.333H246.667ZM39.0007 140.333C40.5947 140.333 42.0208 140.451 43.2787 140.688C44.5367 140.924 45.527 141.244 46.2495 141.648C46.9721 142.052 47.3333 142.502 47.3333 142.999C47.3333 143.496 46.9719 143.946 46.249 144.35C45.526 144.755 44.5358 145.075 43.2782 145.312C42.0206 145.548 40.5947 145.667 39.0007 145.667C37.4065 145.667 35.9822 145.548 34.7279 145.312C33.4736 145.075 32.4832 144.755 31.7566 144.35C31.03 143.946 30.6667 143.496 30.6667 142.999C30.6667 142.502 31.0298 142.052 31.756 141.648C32.4822 141.244 33.4725 140.924 34.7268 140.688C35.9811 140.451 37.4057 140.333 39.0007 140.333ZM176.83 52C183.92 52 190 58.1246 190 65.2684V122.398C190 129.542 183.92 135 176.83 135H100.17C93.0803 135 87 129.542 87 122.398V65.2684C87 58.1246 93.0803 52 100.17 52H176.83ZM138.333 80.3333C135.511 80.3333 133.028 81.3373 130.883 83.3452C128.739 85.3531 127.667 88.0491 127.667 91.4332C127.667 93.6215 128.489 95.9791 130.133 98.5059C131.778 101.033 134.256 103.774 137.567 106.729C137.678 106.82 137.8 106.887 137.933 106.932C138.067 106.977 138.211 107 138.367 107C138.5 107 138.628 106.977 138.75 106.932C138.872 106.887 138.989 106.82 139.1 106.729C142.411 103.774 144.889 101.033 146.533 98.5059C148.178 95.9791 149 93.6215 149 91.4332C149 88.0491 147.928 85.3531 145.783 83.3452C143.639 81.3373 141.156 80.3333 138.333 80.3333ZM138 88C138.921 88 139.706 88.3254 140.357 88.9762C141.008 89.627 141.333 90.4127 141.333 91.3333C141.333 92.254 141.008 93.0397 140.357 93.6905C139.706 94.3413 138.921 94.6667 138 94.6667C137.079 94.6667 136.294 94.3413 135.643 93.6905C134.992 93.0397 134.667 92.254 134.667 91.3333C134.667 90.4127 134.992 89.627 135.643 88.9762C136.294 88.3254 137.079 88 138 88ZM277 0V91.2454C277 92.7667 275.782 94 274.279 94H205.228C201.846 94 199.105 91.2252 199.105 87.8022V66.7985C199.105 54.8182 189.51 41.663 177.675 41.663H149.102C146.284 41.663 144 39.3506 144 36.4982V2.75458C144 1.23327 145.218 0 146.721 0H277ZM129.945 0C131.448 0 132.667 1.23327 132.667 2.75458V36.4982C132.667 39.3506 130.382 41.663 127.564 41.663H99.3299C87.494 41.663 77.8991 54.8182 77.8991 66.7985V87.8022C77.8991 91.2252 75.1578 94 71.7761 94H2.72137C1.2184 94 0 92.7667 0 91.2454V0H129.945ZM237.333 28.6667C235.486 28.6667 233.876 29.2909 232.503 30.5395C231.129 31.788 230.333 33.3394 230.115 35.1936C228.753 35.7623 227.672 36.6709 226.87 37.9194C226.068 39.1679 225.667 40.5339 225.667 42.0173C225.667 44.0693 226.378 45.8185 227.799 47.2648C229.221 48.7112 230.941 49.4343 232.958 49.4343H236.24V55.0332H232.958C232.642 55.0332 232.381 55.1383 232.174 55.3484C231.968 55.5586 231.865 56.566 231.865 56.8874C231.865 57.2089 231.968 57.4746 232.174 57.6848C232.381 57.8949 232.642 58 232.958 58H241.344C241.66 58 241.921 57.8949 242.128 57.6848C242.334 57.4746 242.438 57.2089 242.438 56.8874C242.438 56.566 242.334 55.5586 242.128 55.3484C241.921 55.1383 241.66 55.0332 241.344 55.0332H238.427V49.4343H241.708C243.726 49.4343 245.445 48.7112 246.867 47.2648C248.289 45.8185 249 44.0693 249 42.0173C249 40.5339 248.599 39.1679 247.797 37.9194C246.995 36.6709 245.913 35.7623 244.552 35.1936C244.333 33.3394 243.537 31.788 242.164 30.5395C240.791 29.2909 239.181 28.6667 237.333 28.6667ZM39.3281 33C39.2244 33 39.1259 33.0154 39.0325 33.0463C38.9392 33.0772 38.8511 33.1236 38.7681 33.1854L31.8614 38.3406V37.6966L31.8584 37.6403C31.8289 37.3473 31.5755 36.7755 30.7901 36.7755L30.6207 36.7768L30.4579 36.7811C29.9778 36.7994 29.8243 36.8639 29.6932 36.9792L29.6369 37.0323C29.4606 37.2074 29.3725 37.4288 29.3725 37.6966V40.2921L26.3858 42.5478C26.1784 42.7125 26.0539 42.9185 26.0124 43.1657C25.971 43.4129 26.0332 43.6395 26.1991 43.8455C26.365 44.0515 26.5724 44.1751 26.8213 44.2163C27.0702 44.2575 27.2984 44.1957 27.5058 44.0309L29.3725 42.6096V54.073C29.3725 54.3408 29.4606 54.5623 29.6369 54.7374C29.8132 54.9125 30.0362 55 30.3058 55H36.8666C37.3669 55 37.7725 54.5922 37.7725 54.0891V49.1292C37.7725 48.8614 37.8607 48.64 38.037 48.4649C38.2133 48.2898 39.0585 47.9009 39.3281 47.9009C39.5977 47.9009 40.4429 48.2898 40.6192 48.4649C40.7955 48.64 40.8837 48.8614 40.8837 49.1292V54.0891C40.8837 54.5922 41.2893 55 41.7896 55H48.3504C48.62 55 48.843 54.9125 49.0193 54.7374C49.1956 54.5623 49.2837 54.3408 49.2837 54.073V42.6096L51.2442 44.0774C51.4337 44.2081 51.6357 44.2596 51.8504 44.2317C52.0889 44.2008 52.2911 44.0824 52.4571 43.8764C52.623 43.6704 52.6904 43.4438 52.6593 43.1966C52.6282 42.9494 52.5089 42.7434 52.3015 42.5787L39.8881 33.1854C39.8051 33.1236 39.717 33.0772 39.6236 33.0463C39.5303 33.0154 39.4318 33 39.3281 33Z" fill="white"/>
</svg>
