<?xml version="1.0" encoding="UTF-8"?>
<svg width="936px" height="354px" viewBox="0 0 936 354" version="1.1" xmlns="http://www.w3.org/2000/svg" xmlns:xlink="http://www.w3.org/1999/xlink">
    <g id="permission_map-copy-2" stroke="none" stroke-width="1" fill="none" fill-rule="evenodd">
        <rect id="Rectangle" fill="#1C2C4D" x="0" y="0" width="936" height="354"></rect>
        <path d="M791.127984,-0.147612793 L933.587984,-0.147612793 C934.84167,-0.147612793 935.857984,0.868700825 935.857984,2.12238721 L935.857984,107.582387 C935.857984,108.836074 934.84167,109.852387 933.587984,109.852387 L828.291985,109.852387 L791.127984,109.852387 C789.874297,109.852387 788.857984,108.836074 788.857984,107.582387 L788.857984,2.12238721 C788.857984,0.868700825 789.874297,-0.147612793 791.127984,-0.147612793 Z" id="Park" fill="#3A6045"></path>
        <path d="M598.384827,354 C636.513138,334.354486 664.98675,319.882481 683.805664,310.583984 C712.438351,296.436465 758.854598,272.31606 780.935547,264.962891 C824.785644,250.360384 876.473795,242.03942 936,240 L936,281 C882.655322,282.170573 839.894255,288.565755 807.716797,300.185547 C775.539339,311.805339 737.947542,329.74349 694.941406,354 L598.384827,354 Z" id="Path-2" fill="#2E6895"></path>
        <path d="M514.003906,0 L559,0 L487.620741,95.4056414 C485.635631,98.0589421 486.177308,101.819116 488.830608,103.804226 C489.868169,104.580494 491.129157,105 492.424967,105 L749,105 C753.970563,105 758,100.970563 758,96 L758,0 L758,0 L790,0 L790.916532,98.9855041 C790.962554,103.955854 795.029127,107.94781 799.999476,107.901789 C800.004433,107.901743 800.009389,107.901693 800.014346,107.901639 L936,106.41781 L936,106.41781 L936,140.789279 L802.986644,140.986664 C798.021302,140.994033 794,145.021306 794,149.986654 L794,354.896589 L794,354.896589 L758,355.356209 L758,149 C758,144.581722 754.418278,141 750,141 L475.275775,141 C462.056116,141 449.536999,146.943794 441.180826,157.187512 L347.329248,272.238878 C341.942135,278.842867 339,287.104114 339,295.626652 L339,355 L339,355 L303,355 L303,292.520603 C303,282.550479 298.976339,273.002293 291.84059,266.039215 L19.2041016,0 L19.2041016,0 L67.6542969,0 L314.982173,239.321927 C318.554229,242.778357 324.251943,242.684623 327.708373,239.112567 C327.87848,238.936769 328.041349,238.754109 328.196574,238.565042 L426.523437,118.801018 L426.523437,118.801018 L514.003906,0 Z" id="Path-2" fill="#18284A"></path>
        <path d="M517.003906,0 L556,0 L484.752746,95.8233061 C482.446022,98.9257127 483.09105,103.31068 486.193456,105.617404 C487.400911,106.51518 488.865508,107 490.37015,107 L751,107 C755.970563,107 760,102.970563 760,98 L760,0 L760,0 L792,0 L792,97.9005699 C792,102.871133 796.029437,106.90057 801,106.90057 C801.032961,106.90057 801.065922,106.900389 801.098881,106.900027 L936,105.41781 L936,105.41781 L936,138.789279 L800.98683,138.986849 C796.021415,138.994115 792,143.021419 792,147.98684 L792,354.896589 L792,354.896589 L760,355.356209 L760,147 C760,142.581722 756.418278,139 752,139 L473.461209,139 C460.135678,139 447.528063,145.038945 439.176074,155.4223 L345.169319,272.293333 C339.882334,278.866215 337,287.04833 337,295.483672 L337,355 L337,355 L305,355 L305,291.521558 C305,281.550872 300.975886,272.002195 293.839429,265.039037 L22.2041016,0 L22.2041016,0 L64.6542969,0 L313.410879,241.76488 C317.767434,245.998986 324.731542,245.899723 328.965649,241.543168 C329.182952,241.31958 329.390652,241.086854 329.588184,240.84562 L429.523438,118.801018 L429.523438,118.801018 L517.003906,0 Z" id="Path" fill="#2B4067"></path>
        <path d="M1.42108547e-13,137.965383 C64.2751824,125.72587 122.422969,107.914492 174.443359,84.53125 C226.46375,61.1480076 269.884323,32.9709243 304.705078,0 L356.955078,0 C308.229818,51.5768229 255.957682,90.1653646 200.138672,115.765625 C144.319661,141.365885 77.6067708,161.94401 1.42108547e-13,177.5 L1.42108547e-13,137.965383 Z" id="Path-6" fill="#666462"></path>
        <path d="M0,141.965383 C64.2751824,129.72587 122.422969,111.914492 174.443359,88.53125 C226.46375,65.1480076 271.550989,35.637591 309.705078,0 L352.955078,0 C306.896484,48.9101563 255.957682,86.1653646 200.138672,111.765625 C144.319661,137.365885 77.6067708,157.94401 0,173.5 L0,141.965383 Z" id="Path-6" fill="#605C59"></path>
    </g>
</svg>