<?xml version="1.0" encoding="UTF-8"?>
<svg width="178px" height="248px" viewBox="0 0 178 248" version="1.1" xmlns="http://www.w3.org/2000/svg" xmlns:xlink="http://www.w3.org/1999/xlink">
    <g id="permission_pin" stroke="none" stroke-width="1" fill="none" fill-rule="evenodd">
        <circle id="Oval-Copy-2" fill="#FFFFFF" cx="89" cy="222" r="23"></circle>
        <circle id="Oval-Copy-2" fill="#4286F5" cx="89" cy="222" r="19"></circle>
        <path d="M89,3 C136.496488,3 175,41.5441119 175,89.0906836 C175,131.681076 144.105213,167.047996 103.526308,173.958407 L102.508109,174.923915 L102.508109,174.923915 L101.54416,175.848924 L101.54416,175.848924 L100.634337,176.73331 L100.634337,176.73331 L99.7785135,177.576956 C99.6403694,177.714161 99.5044702,177.849665 99.3708131,177.983463 C96.3710009,180.986438 93.6869021,183.945116 91.3185166,186.859496 C91.1950232,187.011459 91.0573019,187.151283 90.9072276,187.277065 C89.6552561,188.32638 87.8132947,188.208771 86.7033069,187.040654 L86.5737065,186.895445 L85.3092176,185.398239 C82.774807,182.420361 80.2078341,179.541661 77.608299,176.76214 L77.2678801,176.399977 L77.2678801,176.399977 L76.5521835,175.649335 L76.5521835,175.649335 L75.7900086,174.863604 L75.7900086,174.863604 L74.9813553,174.042784 L74.9813553,174.042784 C34.1521559,167.341883 3,131.858108 3,89.0906836 C3,41.5441119 41.5035115,3 89,3 Z" id="Path" fill="#D4D3CF"></path>
        <path d="M89,5 C135.391919,5 173,42.5925823 173,88.9653827 C173,130.504509 142.823474,164.998434 103.188049,171.73807 L102.193981,172.679491 L102.193981,172.679491 L101.252629,173.581592 L101.252629,173.581592 L100.363956,174.444201 L100.363956,174.444201 L99.5279213,175.267144 C99.3929666,175.400986 99.2602036,175.533168 99.1296314,175.663686 C96.1976025,178.594507 93.5743617,181.482065 91.2599089,184.326361 C91.1402188,184.473452 91.0068516,184.608862 90.8615979,184.730775 C89.6413152,185.754968 87.8448548,185.641513 86.7615461,184.50305 L86.6350547,184.361522 L85.3992859,182.900386 C82.9224393,179.994255 80.4137514,177.184964 77.8732223,174.472514 L77.1970916,173.757747 L77.1970916,173.757747 L76.4755924,173.00878 L76.4755924,173.00878 L75.7087247,172.225612 C75.5771328,172.092234 75.4436504,171.957431 75.3082777,171.821203 C35.4283764,165.285597 5,130.677489 5,88.9653827 C5,42.5925823 42.608081,5 89,5 Z" id="Path" fill="#FFFFFF"></path>
    </g>
</svg>