<?xml version="1.0" encoding="UTF-8"?>
<svg width="178px" height="248px" viewBox="0 0 178 248" version="1.1" xmlns="http://www.w3.org/2000/svg" xmlns:xlink="http://www.w3.org/1999/xlink">
    <g id="permission_pin_dark" stroke="none" stroke-width="1" fill="none" fill-rule="evenodd">
        <circle id="Oval-Copy-2" fill="#FFFFFF" cx="89" cy="222" r="23"></circle>
        <circle id="Oval-Copy-2" fill="#4286F5" cx="89" cy="222" r="19"></circle>
        <path d="M89,5 C135.391919,5 173,42.5925823 173,88.9653827 C173,130.504509 142.823474,164.998434 103.188049,171.73807 L102.193981,172.679491 L102.193981,172.679491 L101.252629,173.581592 L101.252629,173.581592 L100.363956,174.444201 L100.363956,174.444201 L99.5279213,175.267144 C99.3929666,175.400986 99.2602036,175.533168 99.1296314,175.663686 C96.1976025,178.594507 93.5743617,181.482065 91.2599089,184.326361 C91.1402188,184.473452 91.0068516,184.608862 90.8615979,184.730775 C89.6413152,185.754968 87.8448548,185.641513 86.7615461,184.50305 L86.6350547,184.361522 L85.3992859,182.900386 C82.9224393,179.994255 80.4137514,177.184964 77.8732223,174.472514 L77.1970916,173.757747 L77.1970916,173.757747 L76.4755924,173.00878 L76.4755924,173.00878 L75.7087247,172.225612 C75.5771328,172.092234 75.4436504,171.957431 75.3082777,171.821203 C35.4283764,165.285597 5,130.677489 5,88.9653827 C5,42.5925823 42.608081,5 89,5 Z" id="Path" fill="#C3C6CD"></path>
    </g>
</svg>