<svg width="936px" height="540px" viewBox="0 0 936 540" version="1.1" xmlns="http://www.w3.org/2000/svg"><rect fill="#2C506C" x="100" y="331" width="124.694981" height="124.694981" rx="35.8970399"/><rect fill="#30573D" x="710" y="331" width="124.694981" height="124.694981" rx="35.8970399"/><rect fill="#274F5B" x="303.101673" y="331" width="124.694981" height="124.694981" rx="35.8970399"/><rect fill="#2C5548" x="506.203346" y="331" width="124.694981" height="124.694981" rx="35.8970399"/><path d="M130.683088,393.207664 C147.781225,385.639383 159.182662,380.64991 164.887397,378.239243 C181.175575,371.356299 184.560119,370.160658 186.766117,370.121177 C187.251306,370.112494 187.771117,369.747873 188.473834,370.32718 C189.067195,370.816336 189.795488,371.9639 189.873612,372.427674 C189.951736,372.891447 190.049019,373.947935 189.971686,374.773443 C189.089024,384.195669 185.269759,407.060924 183.326734,417.613978 C182.504567,422.07937 179.580778,422.817589 178.013522,422.964112 C174.607514,423.282541 173.326062,421.436263 170.027176,419.239288 C164.865071,415.801457 162.00237,413.602374 156.938092,410.306707 C152.957806,407.716467 154.957536,406.031573 158.257669,402.54921 C159.121329,401.637859 174.527687,386.33741 174.818147,385.079379 C174.854474,384.922042 174.43249,384.035556 174.089545,383.725873 C173.746601,383.416189 173.240444,383.522089 172.875188,383.606312 C172.357448,383.725695 164.110917,389.263339 148.135596,400.219244 C145.794846,401.852237 143.674667,402.647887 141.775059,402.606192 C139.680894,402.560226 135.652561,401.403221 132.65791,400.414241 C128.984847,399.201218 127.778341,398.78784 128.032544,396.72775 C128.164949,395.654728 129.048464,394.481366 130.683088,393.207664 Z" fill="#A5A7AA"/><circle fill="#A5A7AA" cx="365" cy="395" r="9"/><path d="M389,371 L379.49,371 L375.77,366.95 C374.66,365.72 373.04,365 371.36,365 L358.64,365 C356.96,365 355.34,365.72 354.2,366.95 L350.51,371 L341,371 C337.7,371 335,373.7 335,377 L335,413 C335,416.3 337.7,419 341,419 L389,419 C392.3,419 395,416.3 395,413 L395,377 C395,373.7 392.3,371 389,371 Z M365,410 C356.72,410 350,403.28 350,395 C350,386.72 356.72,380 365,380 C373.28,380 380,386.72 380,395 C380,403.28 373.28,410 365,410 Z" fill="#A5A7AA"/><path d="M795.133775,404.603959 L787.119532,403.688942 C785.194852,403.468076 783.301723,404.130674 781.944981,405.487423 L776.139388,411.293048 C767.210133,406.749516 759.890038,399.460933 755.34653,390.500077 L761.183675,384.6629 C762.540417,383.306151 763.203012,381.413012 762.982147,379.488321 L762.067135,371.53714 C761.688509,368.350356 759.006578,365.952381 755.78826,365.952381 L750.32974,365.952381 C746.764349,365.952381 743.798448,368.918298 744.019313,372.483709 C745.691576,399.42938 767.241686,420.948055 794.155659,422.620327 C797.72105,422.841193 800.687561,419.875276 800.687561,416.309865 L800.687561,410.851316 C800.718503,407.664533 798.320541,404.982587 795.133775,404.603959 Z" fill="#A5A7AA"/><path d="M590.5,371 L546.5,371 C543.475,371 541.0275,373.475 541.0275,376.5 L541,409.5 C541,412.525 543.475,415 546.5,415 L590.5,415 C593.525,415 596,412.525 596,409.5 L596,376.5 C596,373.475 593.525,371 590.5,371 Z M589.4,383.6875 L569.9575,395.8425 C569.0775,396.3925 567.9225,396.3925 567.0425,395.8425 L547.6,383.6875 C546.9125,383.2475 546.5,381.505 546.5,380.7075 C546.5,378.865 548.5075,377.765 550.075,378.7275 L568.5,390.25 L586.925,378.7275 C588.4925,377.765 590.5,378.865 590.5,380.7075 C590.5,381.505 590.0875,383.2475 589.4,383.6875 Z" fill="#A5A7AA"/><rect fill="#254D5E" x="159" y="84" width="433" height="136" rx="68"/><circle fill="#466F7A" cx="508" cy="152" r="37"/><circle fill="#466F7A" cx="380" cy="152" r="37"/><path d="M379.997694,158.526316 C383.594946,158.526316 386.498753,155.564211 386.498753,151.894737 L386.498753,138.631579 C386.498753,134.962105 383.594946,132 379.997694,132 C376.400441,132 373.496635,134.962105 373.496635,138.631579 L373.496635,151.894737 C373.496635,155.564211 376.400441,158.526316 379.997694,158.526316 Z M392.80478,151.894737 C391.74294,151.894737 390.854462,152.690526 390.681101,153.773684 C389.792623,158.968421 385.350232,162.947368 379.997694,162.947368 C374.645155,162.947368 370.202765,158.968421 369.314287,153.773684 C369.140925,152.690526 368.252447,151.894737 367.190608,151.894737 C365.868726,151.894737 364.828556,153.088421 365.023588,154.414737 C366.085428,161.046316 371.286275,166.241053 377.830674,167.191579 L377.830674,171.789474 C377.830674,173.005263 378.805833,174 379.997694,174 C381.189555,174 382.164713,173.005263 382.164713,171.789474 L382.164713,167.191579 C388.709113,166.241053 393.90996,161.046316 394.9718,154.414737 C395.188502,153.088421 394.126662,151.894737 392.80478,151.894737 Z" fill="#FFFFFF"/><circle fill="#466F7A" cx="252" cy="152" r="37"/><path d="M233,148.275712 L233,157.732861 C233,159.033219 234.05,160.097148 235.333333,160.097148 L242.333333,160.097148 L250.01,167.875653 C251.48,169.365154 254,168.301224 254,166.197009 L254,139.787922 C254,137.683706 251.48,136.619777 250.01,138.109278 L242.333333,145.911425 L235.333333,145.911425 C234.05,145.911425 233,146.975354 233,148.275712 Z M264.5,153.004287 C264.5,148.819498 262.12,145.225782 258.666667,143.476209 L258.666667,162.508721 C262.12,160.782791 264.5,157.189075 264.5,153.004287 Z M258.666667,135.153919 L258.666667,135.626776 C258.666667,136.525205 259.25,137.30542 260.066667,137.63642 C266.086667,140.071636 270.333333,146.053282 270.333333,153.004287 C270.333333,159.955291 266.086667,165.936937 260.066667,168.372153 C259.226667,168.703153 258.666667,169.483368 258.666667,170.381797 L258.666667,170.854654 C258.666667,172.344155 260.136667,173.384442 261.49,172.864299 C269.4,169.814368 275,162.083149 275,153.004287 C275,143.925424 269.4,136.194205 261.49,133.144275 C260.136667,132.600489 258.666667,133.664418 258.666667,135.153919 Z" fill="#FFFFFF"/><path d="M495.625631,139.627767 C496.797204,138.456194 498.696699,138.456194 499.868272,139.627767 L499.868272,139.627767 L507.999952,147.759088 L516.131728,139.627767 C517.303301,138.456194 519.202796,138.456194 520.374369,139.627767 C521.545942,140.79934 521.545942,142.698835 520.374369,143.870408 L512.242952,152.002088 L520.374369,160.133864 C521.499079,161.258574 521.544067,163.054137 520.509334,164.232515 L520.374369,164.376505 C519.202796,165.548078 517.303301,165.548078 516.131728,164.376505 L516.131728,164.376505 L507.999952,156.245088 L499.868272,164.376505 C498.696699,165.548078 496.797204,165.548078 495.625631,164.376505 C494.454058,163.204932 494.454058,161.305437 495.625631,160.133864 L503.756952,152.002088 L495.625631,143.870408 C494.500921,142.745698 494.455933,140.950135 495.490666,139.771757 Z" fill="#FFFFFF"/></svg>