<svg width="946px" height="472px" viewBox="0 0 946 472" version="1.1" xmlns="http://www.w3.org/2000/svg"><rect fill="#2C506C" x="84" y="288" width="124.694981" height="124.694981" rx="35.8970399"/><rect fill="#634248" x="694" y="288" width="124.694981" height="124.694981" rx="35.8970399"/><rect fill="#30573D" x="288" y="88" width="124.694981" height="124.694981" rx="35.8970399"/><rect fill="#274F5B" x="287.101673" y="288" width="124.694981" height="124.694981" rx="35.8970399"/><rect fill="#5E553D" x="490.203346" y="288" width="124.694981" height="124.694981" rx="35.8970399"/><rect fill="#32506D" x="84.2033462" y="88" width="124.694981" height="124.694981" rx="35.8970399"/><path d="M114.683088,350.207664 C131.781225,342.639383 143.182662,337.64991 148.887397,335.239243 C165.175575,328.356299 168.560119,327.160658 170.766117,327.121177 C171.251306,327.112494 171.771117,326.747873 172.473834,327.32718 C173.067195,327.816336 173.795488,328.9639 173.873612,329.427674 C173.951736,329.891447 174.049019,330.947935 173.971686,331.773443 C173.089024,341.195669 169.269759,364.060924 167.326734,374.613978 C166.504567,379.07937 163.580778,379.817589 162.013522,379.964112 C158.607513,380.282541 157.326062,378.436263 154.027176,376.239288 C148.865071,372.801457 146.00237,370.602374 140.938092,367.306707 C136.957806,364.716467 138.957537,363.031573 142.257668,359.54921 C143.121329,358.637859 158.527687,343.33741 158.818147,342.079379 C158.854474,341.922042 158.43249,341.035556 158.089545,340.725873 C157.746601,340.416189 157.240444,340.522089 156.875188,340.606312 C156.357448,340.725695 148.110917,346.263339 132.135596,357.219244 C129.794846,358.852237 127.674667,359.647887 125.775059,359.606192 C123.680894,359.560226 119.652561,358.403221 116.65791,357.414241 C112.984848,356.201218 111.778341,355.78784 112.032544,353.72775 C112.164949,352.654728 113.048464,351.481366 114.683088,350.207664 Z" fill="#A5A7AA"/><circle fill="#A5A7AA" cx="349" cy="352" r="9"/><path d="M373,328 L363.49,328 L359.77,323.95 C358.66,322.72 357.04,322 355.36,322 L342.64,322 C340.96,322 339.34,322.72 338.2,323.95 L334.51,328 L325,328 C321.7,328 319,330.7 319,334 L319,370 C319,373.3 321.7,376 325,376 L373,376 C376.3,376 379,373.3 379,370 L379,334 C379,330.7 376.3,328 373,328 Z M349,367 C340.72,367 334,360.28 334,352 C334,343.72 340.72,337 349,337 C357.28,337 364,343.72 364,352 C364,360.28 357.28,367 349,367 Z" fill="#A5A7AA"/><path d="M373.133775,161.603959 L365.119532,160.688942 C363.194852,160.468076 361.301723,161.130674 359.944981,162.487424 L354.139388,168.293048 C345.210133,163.749516 337.890038,156.460933 333.34653,147.500077 L339.183675,141.6629 C340.540417,140.306151 341.203012,138.413012 340.982147,136.488321 L340.067135,128.53714 C339.688509,125.350356 337.006578,122.952381 333.78826,122.952381 L328.32974,122.952381 C324.764349,122.952381 321.798448,125.918298 322.019313,129.483709 C323.691576,156.42938 345.241686,177.948055 372.155659,179.620327 C375.72105,179.841193 378.687561,176.875276 378.687561,173.309865 L378.687561,167.851316 C378.718503,164.664533 376.320541,161.982586 373.133775,161.603959 Z" fill="#A5A7AA"/><path d="M168.5,128 L124.5,128 C121.475,128 119.0275,130.475 119.0275,133.5 L119,166.5 C119,169.525 121.475,172 124.5,172 L168.5,172 C171.525,172 174,169.525 174,166.5 L174,133.5 C174,130.475 171.525,128 168.5,128 Z M167.4,140.6875 L147.9575,152.8425 C147.0775,153.3925 145.9225,153.3925 145.0425,152.8425 L125.6,140.6875 C124.9125,140.2475 124.5,138.505 124.5,137.7075 C124.5,135.865 126.5075,134.765 128.075,135.7275 L146.5,147.25 L164.925,135.7275 C166.4925,134.765 168.5,135.865 168.5,137.7075 C168.5,138.505 168.0875,140.2475 167.4,140.6875 Z" fill="#A5A7AA"/><rect fill="#2EA3EF" x="439" y="59" width="427" height="328" rx="22"/><path d="M650,163 C616.88,163 590,189.88 590,223 C590,256.12 616.88,283 650,283 C683.12,283 710,256.12 710,223 C710,189.88 683.12,163 650,163 Z M638,244 L638,202 C638,199.54 640.82,198.1 642.8,199.6 L672.82,220.6 C674.44,221.8 674.44,224.2 672.82,225.4 L642.8,246.4 C640.82,247.9 638,246.46 638,244 Z" fill="#FFFFFF"/></svg>