<?xml version="1.0" encoding="UTF-8"?>
<svg width="84px" height="84px" viewBox="0 0 84 84" version="1.1" xmlns="http://www.w3.org/2000/svg" xmlns:xlink="http://www.w3.org/1999/xlink">
    <title>premium_object_fire</title>
    <g id="premium_object_fire" stroke="none" stroke-width="1" fill="none" fill-rule="evenodd">
        <path d="M58.5425,17.82 C56.2675,14.4725 53.6675,11.3525 50.7425,8.5575 C49.605,7.4525 47.6875,8.4925 48.0125,10.0525 C48.63,13.1075 49.28,17.1375 49.28,20.745 C49.28,27.44 44.8925,32.8675 38.1975,32.8675 C33.1925,32.8675 29.0975,29.845 27.31,25.5225 C26.985,24.8725 26.855,24.4825 26.66,23.7675 C26.3025,22.4025 24.515,21.98 23.735,23.1825 C23.15,24.06 22.5975,24.9375 22.0775,25.88 C18.21,32.51 16,40.245 16,48.5 C16,62.865 27.635,74.5 42,74.5 C56.365,74.5 68,62.865 68,48.5 C68,37.1575 64.49,26.6275 58.5425,17.82 Z" id="Shape" fill="#FFFFFF" fill-rule="nonzero"></path>
    </g>
</svg>