<svg width="84px" height="84px" viewBox="0 0 84 84" version="1.1" xmlns="http://www.w3.org/2000/svg"><path d="M38.9729122,77 L45.0621813,77 C45.9910621,77 46.7792035,76.7356752 47.4266053,76.2070257 C48.0740071,75.6783761 48.4980534,74.9623594 48.6987443,74.0589756 L50.3914569,66.8909484 C50.9847563,66.6916994 53.2863044,65.7691219 53.814169,65.5084531 L60.0821955,69.3680335 C60.8385334,69.844403 61.6343514,70.0435606 62.4696496,69.9655062 C63.3049478,69.8874518 64.0375244,69.5343789 64.6673795,68.9062877 L68.9389154,64.6315748 C69.5921661,64.00129 69.956718,63.2562086 70.0325711,62.3963305 C70.1084243,61.5364524 69.8849774,60.7295855 69.3622306,59.9757298 L65.5414268,53.7416135 C65.8038968,53.1950499 66.7128548,50.9619991 66.8886878,50.3920374 L74.0943686,48.7029911 C75.0163039,48.5022797 75.7310596,48.0781902 76.2386357,47.4307225 C76.7462119,46.7832547 77,45.9950331 77,45.0660577 L77,39.0814597 C77,38.1758823 76.7462119,37.3992683 76.2386357,36.7516178 C75.7310596,36.1039672 75.0163039,35.6786895 74.0943686,35.4757846 L66.9270713,33.758222 C66.730036,33.1228188 65.8320447,30.8568646 65.6116138,30.3735487 L69.4357076,24.0593673 C69.9376177,23.27992 70.155307,22.477166 70.0887756,21.6511054 C70.0222442,20.8250448 69.6612564,20.0875494 69.0058124,19.4386193 L64.6607995,15.1600677 C64.0097421,14.5626864 63.2980022,14.2137265 62.5255799,14.113188 C61.7531575,14.0126496 60.978359,14.1853929 60.2011844,14.6314181 L53.814169,18.5683218 C53.3075067,18.3244703 51.027892,17.4029895 50.3947469,17.1825361 L48.6987443,9.90921768 C48.4980534,9.00583384 48.0740071,8.29511827 47.4266053,7.77707096 C46.7792035,7.25902365 45.9910621,7 45.0621813,7 L38.9729122,7 C38.0440314,7 37.25589,7.25957205 36.6084882,7.77871614 C35.9610864,8.29786023 35.5370401,9.00912419 35.3363492,9.91250803 L33.6118331,17.1123419 C33.0185338,17.3327954 30.6818921,18.2681687 30.1540275,18.5332247 L23.8021056,14.6314181 C23.0227377,14.1853929 22.2473908,14.0126496 21.4760651,14.113188 C20.7047394,14.2137265 19.9924512,14.5650628 19.3392005,15.1671968 L14.9974777,19.4386193 C14.3420336,20.0875494 13.9810459,20.8250448 13.9145144,21.6511054 C13.847983,22.477166 14.0656724,23.27992 14.5675824,24.0593673 L18.3916763,30.3735487 C18.1712453,30.8568646 17.2721573,33.1228188 17.0729287,33.758222 L9.90892142,35.4757846 C8.98442726,35.6786895 8.26848349,36.1039672 7.76109009,36.7516178 C7.2536967,37.3992683 7,38.1758823 7,39.0814597 L7,45.0660577 C7,45.9950331 7.2536967,46.7832547 7.76109009,47.4307225 C8.26848349,48.0781902 8.98442726,48.5022797 9.90892142,48.7029911 L17.1464057,50.3920374 C17.3010364,50.9619991 18.1982965,53.1950499 18.4585732,53.7416135 L14.6377694,59.9757298 C14.1150226,60.7295855 13.8921241,61.5364524 13.9690739,62.3963305 C14.0460237,63.2562086 14.4100272,64.00129 15.0610846,64.6315748 L19.3359105,68.9062877 C19.9657656,69.5343789 20.6983422,69.8874518 21.5336404,69.9655062 C22.3689386,70.0435606 23.1647566,69.844403 23.9210945,69.3680335 L30.189121,65.5084531 C30.7169856,65.7691219 33.0185338,66.6916994 33.6118331,66.8909484 L35.3363492,74.0589756 C35.5370401,74.9623594 35.9610864,75.6783761 36.6084882,76.2070257 C37.25589,76.7356752 38.0440314,77 38.9729122,77 Z M42.0156276,53.655516 C39.874559,53.655516 37.9195591,53.1254955 36.1506278,52.0654545 C34.3816966,51.0054134 32.9730219,49.5907458 31.9246038,47.8214515 C30.8761858,46.0521573 30.3519768,44.0957701 30.3519768,41.9522899 C30.3519768,39.8322078 30.8761858,37.8928208 31.9246038,36.1341288 C32.9730219,34.3754368 34.3816966,32.9666186 36.1506278,31.9076743 C37.9195591,30.8487301 39.874559,30.3192579 42.0156276,30.3192579 C44.159255,30.3192579 46.1102338,30.8487301 47.8685639,31.9076743 C49.626894,32.9666186 51.0354773,34.3754368 52.0943138,36.1341288 C53.1531502,37.8928208 53.6825684,39.8322078 53.6825684,41.9522899 C53.6825684,44.0957701 53.1531502,46.0521573 52.0943138,47.8214515 C51.0354773,49.5907458 49.626894,51.0054134 47.8685639,52.0654545 C46.1102338,53.1254955 44.159255,53.655516 42.0156276,53.655516 Z" fill="#FFFFFF"/></svg>