<svg width="84px" height="84px" viewBox="0 0 84 84" version="1.1" xmlns="http://www.w3.org/2000/svg"><path d="M61.143472,13 C64.1104735,13 66.6250598,13.5509586 68.687231,14.6528759 C70.7494022,15.7547931 72.3170732,17.3440969 73.3902439,19.4207871 C74.4002869,21.375319 74.9350156,23.7240423 74.9944299,26.4669569 L75,26.9858729 L75,50.1579213 C75,53.1246216 74.4634146,55.6516145 73.3902439,57.7389001 C72.3170732,59.8261857 70.7494022,61.4154894 68.687231,62.5068113 C66.746364,63.5339378 64.4047417,64.0683251 61.6623642,64.1099733 L61.143472,64.1120081 L41.2898135,64.1120081 L30.3687231,74.0610494 C29.6322334,74.7391524 29.0062171,75.2318365 28.4906743,75.5391019 C27.9751315,75.8463673 27.4122429,76 26.8020086,76 C25.9392635,76 25.2659015,75.7139253 24.7819225,75.141776 C24.3419417,74.6216402 24.1019521,73.9351311 24.0619538,73.0822485 L24.0559541,72.8213925 L24.0559541,64.1120081 L22.7618364,64.1120081 C19.8579627,64.1120081 17.3802009,63.5663471 15.3285509,62.4750252 C13.276901,61.3837033 11.70923,59.7996973 10.625538,57.7230071 C9.6055926,55.7684751 9.06562149,53.4197518 9.0056247,50.6768372 L9,50.1579213 L9,26.9858729 C9,24.0191726 9.53658537,21.4921796 10.6097561,19.404894 C11.6829268,17.3176085 13.2505978,15.7283047 15.312769,14.6369828 C17.253636,13.6098564 19.5952583,13.0660835 22.3376358,13.0056643 L22.856528,13 L61.143472,13 Z M55.9353261,25.324399 C54.5584886,23.9365009 52.355685,23.8858646 50.9185879,25.1732799 L50.7621424,25.3218325 L41.9571318,34.1787135 L33.4158776,25.5862426 L33.2594321,25.4376901 C31.822335,24.1502748 29.6195314,24.200911 28.2426939,25.5888091 C26.8658564,26.9767072 26.8177446,29.1950687 28.0975744,30.6410148 L28.2452424,30.7984153 L36.7815932,39.3864811 L28.2452424,47.9749351 L28.0975744,48.1323356 C26.8177446,49.5782816 26.8658564,51.7966432 28.2426939,53.1845413 C29.6195314,54.5724394 31.822335,54.6230756 33.2594321,53.3356603 L33.4158776,53.1871077 L41.9571318,44.5931963 L50.7621424,53.4515179 L50.9185879,53.6000705 C52.355685,54.8874858 54.5584886,54.8368495 55.9353261,53.4489514 C57.3121636,52.0610533 57.3602754,49.8426918 56.0804456,48.3967458 L55.9327776,48.2393452 L47.1326703,39.3864811 L55.9327776,30.5340052 L56.0804456,30.3766046 C57.3602754,28.9306586 57.3121636,26.7122971 55.9353261,25.324399 Z" fill="#FFFFFF"/></svg>