<svg width="84px" height="84px" viewBox="0 0 84 84" version="1.1" xmlns="http://www.w3.org/2000/svg"><path d="M42,9 C61.3299662,9 77,23.165701 77,40.6399787 C77,58.1142565 61.3299662,72.2799575 42,72.2799575 C37.2499676,72.2799575 32.7209412,71.4245579 28.5911353,69.8748646 C27.4157602,70.8188233 25.9648118,71.7148963 24.2394289,72.5628279 C19.5747416,74.8552672 14.8404686,75.5304804 10.0366097,74.5884673 L10.0362692,74.5902197 C9.30857148,74.4488259 8.83327827,73.7442881 8.97467207,73.0165904 C9.01023833,72.8335449 9.08344713,72.6604328 9.18909361,72.5080032 L9.27467608,72.3980251 C12.4063063,68.7692384 13.9597999,64.4854862 13.935157,59.5467684 C9.57842009,54.2721381 7,47.7282627 7,40.6399787 C7,23.165701 22.6700338,9 42,9 Z" fill="#FFFFFF"/></svg>