<svg width="84px" height="84px" viewBox="0 0 84 84" version="1.1" xmlns="http://www.w3.org/2000/svg"><path d="M39.3075319,56.1425976 C40.3374448,57.0123862 40.8886286,57.6462393 40.9610834,58.0441571 L41.4029163,60.4349708 L41.7309691,62.1566284 L42.0364321,63.7085143 L42.2507049,64.7610159 L42.5166358,66.015801 L42.759977,67.1008144 L42.9276583,67.8031616 L43.0826329,68.4100122 C43.4976508,73.0534071 42.3252062,77.2876497 39.0015336,77.8674577 C38.8860082,77.8876109 38.7700913,77.9031125 38.6539271,77.9139433 L38.0058003,77.9743726 C34.5487503,78.296697 31.3185774,75.5542465 29.9310824,71.1188527 C29.7054975,70.7614629 29.484981,70.4089085 29.2695328,70.0611893 L28.6383934,69.0325375 L28.3342275,68.5290909 L28.3342275,68.5290909 L27.7487034,67.5439565 C27.558597,67.2204136 27.373559,66.901706 27.1935894,66.5878336 L26.6688857,65.6607223 L26.4179376,65.208046 L26.4179376,65.208046 L25.9388492,64.3244521 L25.7107088,63.8935344 L25.7107088,63.8935344 L25.2772356,63.0534579 C24.2315655,60.9895309 23.4709909,59.1975875 22.9955118,57.6776276 C22.8888022,57.3365099 23.2371418,56.8248332 24.0405304,56.1425976 L39.3075319,56.1425976 Z M18.1621162,6.60264911 L18.2987613,6.74755969 L74.5104404,69.918919 C75.7544289,71.3169282 75.6295704,73.4586904 74.2315613,74.7026788 C72.8834811,75.9022391 70.8438244,75.8289813 69.5844466,74.5687102 L69.4478016,74.4237997 L13.2361224,11.2524403 C11.992134,9.85443118 12.1169924,7.71266899 13.5150016,6.46868056 C14.8630818,5.26912029 16.9027385,5.34237809 18.1621162,6.60264911 Z M70.8565997,12.4017361 C71.598978,13.3976208 72,14.6065695 72,15.8487094 L72,59.2851068 C72,59.4626162 71.9919807,59.6382527 71.9762847,59.8116736 L38.783,22.6278573 L43.6621199,22.6279139 C46.1463999,22.6279139 48.5642972,21.8258698 50.5560665,20.3411133 L62.7855848,11.2246678 C65.3393725,9.32095706 68.9528889,9.84794848 70.8565997,12.4017361 Z M17.8216914,23.2385982 L43.289,51.7711171 L21.5348837,51.7711171 C15.1643434,51.7711171 10,46.6067737 10,40.2362334 L10,34.1627976 C10,29.0913332 13.2728743,24.7842895 17.8216914,23.2385982 Z" fill="#FFFFFF"/></svg>