<svg width="84px" height="84px" viewBox="0 0 84 84" version="1.1" xmlns="http://www.w3.org/2000/svg"><path d="M11,52.9637892 C11,56.0893873 11.5951492,58.9419702 12.7854476,61.5215379 C13.9757459,64.1011057 15.5996131,66.1661512 17.6570489,67.7166743 C19.7144848,69.2671975 22.0483515,70.0424591 24.6586492,70.0424591 L30.046584,70.0424591 C27.2835912,67.9827332 25.2437613,65.4515323 23.9270945,62.4488565 C22.6104277,59.4461808 21.9846737,56.1880852 22.0498324,52.6745699 C22.0708938,50.0999125 22.372911,47.7636523 22.9558841,45.6657894 C23.5388572,43.5679265 24.2663806,41.6969214 25.1384543,40.0527744 C26.010528,38.4086273 26.9196238,36.9888011 27.8657415,35.7932959 L23.4838178,35.7932959 C21.1223079,35.7932959 19.0028397,36.5544811 17.125413,38.0768517 C15.2479863,39.5992222 13.7577275,41.6606667 12.6546365,44.2611853 C11.5515455,46.8617038 11,49.7625718 11,52.9637892 Z M26.3419161,52.7374223 C26.2810354,55.6014627 26.7982739,58.2589412 27.8936314,60.709858 C28.9889889,63.1607747 30.5812639,65.2960381 32.6704564,67.1156481 C34.7596489,68.9352582 37.2735249,70.3596674 40.2120843,71.3888756 C43.1506437,72.4180839 46.4325204,72.9431634 50.0577145,72.9641142 L54.327585,72.9955404 C56.3537578,73.0164912 58.1061324,72.9636232 59.5847087,72.8369363 C61.0632851,72.7102494 62.2369647,72.5306944 63.1057476,72.2982715 C64.3733808,71.9718972 65.509298,71.3998421 66.5134991,70.582106 C67.5177002,69.7643699 68.0198008,68.6101116 68.0198008,67.1193309 C68.0198008,66.5346725 67.9528321,66.0213778 67.8188948,65.5794468 C67.6849574,65.1375158 67.515808,64.7374864 67.3114466,64.3793586 C67.0728604,63.9826027 67.1309438,63.7128611 67.4856968,63.5701338 C68.4617612,63.1586469 69.295332,62.5085991 69.9864093,61.6199904 C70.6774866,60.7313816 71.0230253,59.6669008 71.0230253,58.4265477 C71.0230253,57.0379022 70.6669559,55.8694038 69.9548172,54.9210526 C69.6211256,54.4696282 69.7098139,54.095951 70.220882,53.8000209 C70.9261099,53.3796954 71.4971537,52.751826 71.9340133,51.9164127 C72.3708728,51.0809994 72.5893026,50.1514711 72.5893026,49.1278279 C72.5893026,48.4181194 72.4782366,47.7130758 72.2561046,47.0126969 C72.0339727,46.3123181 71.7228233,45.7663696 71.3226567,45.3748515 C70.9297299,45.0141048 70.9591829,44.6392818 71.4110158,44.2503825 C71.9036552,43.8382409 72.2916458,43.2826354 72.5749875,42.583566 C72.8583292,41.8844966 73,41.0930309 73,40.2091688 C73,38.6669933 72.4651555,37.3544581 71.3954666,36.2715634 C70.3257777,35.1886687 68.9998142,34.6472214 67.4175763,34.6472214 L56.4057531,34.6472214 C55.0528871,34.6472214 53.9596686,34.3200288 53.1260977,33.6656435 C52.2925269,33.0112582 51.8757414,32.133616 51.8757414,31.0327167 C51.8757414,30.0041631 52.1414771,28.7881981 52.6729485,27.3848216 C53.2044198,25.9814451 53.8160232,24.4864906 54.5077587,22.8999583 C55.1994942,21.3134259 55.8069017,19.7344227 56.3299814,18.1629487 C56.8530611,16.5914747 57.114601,15.1137065 57.114601,13.729644 C57.114601,12.2434464 56.6928793,11.0836229 55.8494359,10.2501738 C55.0059925,9.41672459 53.9471634,9 52.6729485,9 C51.5553777,9 50.6559077,9.35444505 49.9745384,10.0633351 C49.2931691,10.7722252 48.6413351,11.7321158 48.0190365,12.9430068 C45.7009658,17.4418646 43.1196275,21.5416751 40.2750217,25.2424382 C37.4304159,28.9432013 34.8164983,32.3496711 32.4332688,35.4618476 C31.0777701,37.2603432 29.9569085,39.0180011 29.0706842,40.7348212 C28.1844598,42.4516414 27.5139503,44.2749343 27.0591556,46.2046997 C26.6043609,48.1344652 26.3652811,50.3120394 26.3419161,52.7374223 Z" fill="#FFFFFF" fill-rule="nonzero"/></svg>