<svg width="84px" height="84px" viewBox="0 0 84 84" version="1.1" xmlns="http://www.w3.org/2000/svg"><path d="M39.1547215,64.6172189 L23.5543411,74.4255797 C21.9334131,75.4446989 19.793232,74.9568364 18.7741128,73.3359084 C18.2728444,72.5386317 18.1174995,71.5717336 18.3438014,70.6575632 L20.8716131,60.4461992 C21.7023743,57.0902511 23.9367956,54.2539303 27.005005,52.6606184 L41.5756897,45.094106 C42.3618748,44.6858424 42.6682408,43.7175505 42.2599772,42.9313653 C41.941889,42.3188291 41.2676228,41.9784541 40.5858929,42.0862741 L24.3517135,44.653815 C20.4744425,45.2670306 16.523615,44.144926 13.547507,41.5852299 L7.30032553,36.2121435 C5.84869973,34.9636267 5.68404734,32.7747287 6.93256411,31.3231029 C7.5281546,30.6306216 8.372959,30.2011572 9.28340444,30.1280308 L27.7761498,28.6427046 C29.0849038,28.5375863 30.2219791,27.7021504 30.7134202,26.4846231 L37.7851689,8.96462584 C38.5018303,7.18912364 40.522128,6.33076355 42.2976302,7.04742493 C43.1704603,7.39973292 43.8625231,8.09179575 44.2148311,8.96462584 L51.2865798,26.4846231 C51.7780209,27.7021504 52.9150962,28.5375863 54.2238502,28.6427046 L72.8145342,30.1358972 C74.723071,30.2891897 76.1459777,31.9606327 75.9926852,33.8691696 C75.9203744,34.76946 75.4995753,35.6059885 74.8198416,36.2007268 L60.5096574,48.7215344 C59.5446427,49.5658816 59.1244794,50.8739291 59.4172819,52.1223049 L63.7930969,70.7787725 C64.2303145,72.6428681 63.0736015,74.5084511 61.2095059,74.9456687 C60.3070137,75.1573454 59.3573387,74.9987762 58.5725748,74.505375 L42.8452785,64.6172189 C41.7173024,63.9080313 40.2826976,63.9080313 39.1547215,64.6172189 Z" fill="#FFFFFF"/></svg>