<svg width="84px" height="84px" viewBox="0 0 84 84" version="1.1" xmlns="http://www.w3.org/2000/svg" xmlns:xlink="http://www.w3.org/1999/xlink"><path d="M42,9 C60.2253967,9 75,23.7746033 75,42 C75,60.2253967 60.2253967,75 42,75 C23.7746033,75 9,60.2253967 9,42 C9,23.7746033 23.7746033,9 42,9 Z M42,48.7660261 C26.9066713,48.7660261 19.1380415,43.5418292 19.1244835,46.4670263 C19.1190611,47.7008238 19.2328906,51.2726262 21.3606333,55.2621267 C24.2775327,60.7312897 30.5745106,66.779044 41.8406871,66.779044 C53.4039032,66.779044 59.5624444,60.8283195 62.3621799,55.2621267 C64.2800737,51.4491355 64.37138,47.7832401 64.5408146,46.4670263 C64.9575893,43.2294077 57.0933287,48.7660261 42,48.7660261 Z M22.7003695,47.6372626 C28.9424063,49.8423294 35.3153313,50.9448628 41.8191446,50.9448628 C47.9983513,50.9448628 54.3957487,49.9496382 61.0113367,47.9591892 C61.6238518,47.7754231 62.2690413,48.1235932 62.4522373,48.7362788 C62.5191225,48.9599716 62.516821,49.1986591 62.4451696,49.4208716 L61.5908611,52.085686 C61.3056152,52.970519 60.6020275,53.6577444 59.7101829,53.9202494 C53.7273987,55.6926682 47.7637192,56.5788776 41.8191446,56.5788776 C35.9748738,56.5788776 30.0244686,55.7223222 23.9679288,54.0092115 C22.8951803,53.7060206 22.1281041,52.7625865 22.0491658,51.6506142 L21.8157259,48.302979 C21.7916294,47.9383528 22.0678429,47.6233708 22.4324812,47.5994591 C22.5234251,47.5934954 22.6146205,47.6063843 22.7003695,47.6372626 Z M32.5722442,30.5578706 C28.4492519,30.5578706 26.8131873,34.1019574 27.6640502,41.190131 C27.6778456,41.3000496 27.7456039,41.3958654 27.8447134,41.4453598 C27.9848231,41.5153293 28.1508126,41.4765879 28.2467849,41.3611533 L28.2884924,41.2971931 L28.444953,40.99433 C29.8491113,38.3166823 31.224875,36.9778585 32.5722442,36.9778585 C33.9634639,36.9778585 35.3244107,38.4052452 36.654524,41.2602876 C36.7026516,41.3605979 36.7979774,41.4299992 36.9082212,41.4449902 C37.0666353,41.4665314 37.2140842,41.3721363 37.2649637,41.2269153 L37.2806072,41.1617557 L37.3293767,40.7929014 C38.2031951,33.9695476 36.6174842,30.5578706 32.5722442,30.5578706 Z M51.09856,30.5578706 C46.9755677,30.5578706 45.3395031,34.1019574 46.190366,41.190131 C46.2041613,41.3000496 46.2719197,41.3958654 46.3710292,41.4453598 C46.5111389,41.5153293 46.6771284,41.4765879 46.7731007,41.3611533 L46.8148081,41.2971931 C48.2734797,38.417691 49.7012882,36.9778585 51.09856,36.9778585 C52.4897797,36.9778585 53.8507265,38.4052452 55.1808398,41.2602876 C55.2289674,41.3605979 55.3242931,41.4299992 55.434537,41.4449902 C55.592951,41.4665314 55.7404,41.3721363 55.7912795,41.2269153 L55.806923,41.1617557 L55.8556925,40.7929014 C56.7295109,33.9695476 55.1438,30.5578706 51.09856,30.5578706 Z" fill="#FFFFFF"/></svg>