<svg width="72px" height="72px" viewBox="0 0 72 72" version="1.1" xmlns="http://www.w3.org/2000/svg"><path d="M49.1645052,13 C51.6074177,13 53.8736366,14.2734931 55.1439678,16.3601364 L65.0858707,32.690684 C66.3233511,34.7233666 66.3233511,37.2766334 65.0858707,39.309316 L55.1439678,55.6398636 C53.8736366,57.7265069 51.6074177,59 49.1645052,59 L17.4551738,59 C11.128656,59 6,53.871344 6,47.5448262 L6,24.4551738 C6,18.128656 11.128656,13 17.4551738,13 L49.1645052,13 Z M49.0718486,31.5374839 C46.4355279,31.5374839 44.2983677,33.6827862 44.2983677,36.3291506 C44.2983677,38.975515 46.4355279,41.1208173 49.0718486,41.1208173 C51.7081692,41.1208173 53.8453294,38.975515 53.8453294,36.3291506 C53.8453294,33.6827862 51.7081692,31.5374839 49.0718486,31.5374839 Z" fill="#FFFFFF"/></svg>