<svg width="84px" height="84px" viewBox="0 0 84 84" version="1.1" xmlns="http://www.w3.org/2000/svg"><path d="M58.5,9 C67.6126984,9 75,16.3873016 75,25.5 L75,58.5 C75,67.6126984 67.6126984,75 58.5,75 L25.5,75 C16.3873016,75 9,67.6126984 9,58.5 L9,25.5 C9,16.3873016 16.3873016,9 25.5,9 L58.5,9 Z M37.2857143,23.7794819 C34.7544092,23.7794819 32.6890677,25.7745093 32.5762797,28.2779744 L32.5714286,28.4937676 L32.5714286,55.5062324 C32.5714286,56.6090759 32.9580765,57.6770167 33.6640997,58.5242446 C35.2803926,60.4637961 38.1246017,60.7766823 40.1192778,59.274044 L40.3037265,59.127847 L56.5112053,45.6216146 C56.7302455,45.4390811 56.9322743,45.2370523 57.1148078,45.0180122 C58.7311007,43.0784606 58.5259674,40.2244558 56.6882669,38.5334469 L56.5112053,38.3783854 L40.3037265,24.872153 C39.4564986,24.1661298 38.3885578,23.7794819 37.2857143,23.7794819 Z" fill="#FFFFFF"/></svg>