<svg width="72px" height="72px" viewBox="0 0 72 72" version="1.1" xmlns="http://www.w3.org/2000/svg"><path d="M50.9333333,4 C60.3589931,4 68,11.6410069 68,21.0666667 L68,50.9333333 C68,60.3589931 60.3589931,68 50.9333333,68 L21.0666667,68 C11.6410069,68 4,60.3589931 4,50.9333333 L4,21.0666667 C4,11.6410069 11.6410069,4 21.0666667,4 L50.9333333,4 Z M54.2085467,23.1103432 C52.8866091,21.8076634 50.7433246,21.8076634 49.4213869,23.1103432 L31.0221541,46.1814073 L22.5786131,37.8611959 C21.2566754,36.558516 19.1133909,36.558516 17.7914533,37.8611959 C16.4695156,39.1638758 16.4695156,41.2759372 17.7914533,42.5786171 L28.4520911,53.0839523 C29.8719501,54.483127 32.1739963,54.483127 33.5938553,53.0839523 L54.2085467,27.8277644 C55.5304844,26.5250845 55.5304844,24.4130231 54.2085467,23.1103432 Z" fill="#FFFFFF"/></svg>