<svg width="84px" height="84px" viewBox="0 0 84 84" version="1.1" xmlns="http://www.w3.org/2000/svg"><path d="M42,9 C60.2253967,9 75,23.7746033 75,42 C75,60.2253967 60.2253967,75 42,75 C23.7746033,75 9,60.2253967 9,42 C9,23.7746033 23.7746033,9 42,9 Z M56.060747,51.3650987 C54.0697695,52.4475571 48.9384635,56.1174654 41.7123344,56.1174654 C34.8011278,56.1174654 29.6514825,52.9690854 27.5227694,51.6802178 C26.7955317,51.2398986 26.6162667,51.7087628 26.9059078,52.2200045 C28.2636235,54.6164913 32.7376013,60.2223032 41.7109758,60.2223032 C50.9556696,60.2223032 55.623501,54.5431051 56.7206597,52.1342321 C56.9156468,51.706127 56.6245177,51.0585867 56.060747,51.3650987 Z M54.2507831,29.3319526 C47.4584749,30.1625826 43.6491633,32.1544314 41.7124069,32.1544314 C39.7756504,32.1544314 33.8986657,29.3319526 28.5464586,29.3319526 C23.1942514,29.3319526 21.6199574,29.4482918 15.9750056,29.3319526 C13.6327254,29.2836796 14.2417971,31.0581422 15.0481408,32.1544314 C15.5520299,32.8395093 16.6768372,38.3612596 19.0808922,42.5076923 C21.4849473,46.654125 25.5743414,46.4346877 28.5464586,46.6486455 C41.010541,47.545914 39.074857,35.0263939 41.7124069,35.0263939 C44.3499568,35.0263939 43.2701521,47.8308037 55.7585524,46.6486455 C61.7256719,46.083795 63.085901,45.0125671 64.8976337,41.5136268 C66.7093664,38.0146865 68.3896846,32.6650676 68.7527982,32.1544314 C69.4481689,31.1765515 69.7513259,29.3319526 67.8618474,29.3319526 C65.8200121,29.3319526 61.0430913,28.5013226 54.2507831,29.3319526 Z M20.6922514,32.8508918 C23.0169493,32.1638057 24.0693941,32.262582 29.3520977,32.8508918 C34.6348012,33.4392015 36.1552946,34.753259 36.9510014,34.753259 C37.7467083,34.753259 37.2247775,36.8464796 36.4290706,36.8464796 C36.1789913,36.8464796 35.7835337,36.7531237 35.2150619,36.6098517 L34.8876618,36.527014 C33.6230626,36.2070392 31.646308,35.718992 28.7363112,35.4103896 C24.1067709,34.9194312 22.1935753,35.4103896 20.6922514,35.4103896 C19.1909274,35.4103896 18.3675534,33.5379778 20.6922514,32.8508918 Z M63.4806298,32.8508918 C65.8053277,33.5379778 64.9819538,35.4103896 63.4806298,35.4103896 C61.9793058,35.4103896 60.0661103,34.9194312 55.4365699,35.4103896 C52.5265731,35.718992 50.5498185,36.2070392 49.2852193,36.527014 L48.9578193,36.6098517 C48.3893475,36.7531237 47.9938899,36.8464796 47.7438106,36.8464796 C46.9481037,36.8464796 46.4261728,34.753259 47.2218797,34.753259 C48.0175866,34.753259 49.5380799,33.4392015 54.8207835,32.8508918 C60.1034871,32.262582 61.1559319,32.1638057 63.4806298,32.8508918 Z" fill="#FFFFFF"/></svg>