<?xml version="1.0" encoding="UTF-8"?><svg width="150px" height="150px" viewBox="0 0 150 150" version="1.1" xmlns="http://www.w3.org/2000/svg"><circle id="Oval" fill="#50A7EA" cx="75" cy="75" r="75" /><path d="M34.5683277,73.8430636 C56.3115551,64.3878175 70.8104456,58.1543406 78.0649991,55.1426329 C98.7782235,46.5435952 103.082254,45.0498502 105.887561,45 C106.504562,44.9896775 107.884131,45.1422996 108.777757,45.8660431 C109.532318,46.4771579 109.739928,47.3026872 109.839276,47.8820912 C109.938624,48.4614952 110.062336,49.7813922 109.963994,50.8127214 C108.841537,62.584148 103.984684,91.1502959 101.513793,104.334495 C100.468266,109.913224 98.4095915,111.783744 96.4165562,111.966799 C92.0852292,112.36462 88.796216,109.109774 84.6011139,106.365037 C78.0366073,102.070066 74.3280787,99.3964336 67.9560884,95.2053353 C60.592151,90.3617961 65.3658852,87.6997027 69.5625716,83.3490972 C70.6608644,82.210523 89.7447909,64.8850757 90.1141609,63.3133861 C90.1603568,63.1168201 90.2032288,62.3841149 89.7671159,61.9972197 C89.331003,61.6103245 88.687338,61.7426276 88.2228513,61.8478494 C87.5644556,61.9969982 77.0775713,68.9153185 56.7621985,82.6028104 C53.7855313,84.6429505 51.0893586,85.6369753 48.6736804,85.5848846 C46.010589,85.5274589 40.8878694,84.0819826 37.079654,82.8464252 C32.4087227,81.3309638 28.6963596,80.5297284 29.019623,77.956006 C29.1879986,76.6154522 31.0375668,75.2444714 34.5683277,73.8430636 Z" id="Path-3" fill="#FFFFFF" /></svg>