<svg width="309px" height="446px" viewBox="0 0 309 446" version="1.1" xmlns="http://www.w3.org/2000/svg">
    <path d="M309,30.6382979 L309,415.361702 C309,432.282767 295.282767,446 278.361702,446 L30.6382979,446 C13.7172332,446 0,432.282767 0,415.361702 L0,30.6382979 C0,13.7172332 13.7172332,-7.58434185e-15 30.6382979,-7.58434185e-15 L278.361702,-7.58434185e-15 C295.282767,-7.58434185e-15 309,13.7172332 309,30.6382979 Z" fill="#323940"/>
    <path d="M287.881295,35 L287.881295,317.222222 C287.881295,319.676821 285.891449,322 283.436851,322 L25.5631495,322 C23.1085506,322 21.118705,319.676821 21.118705,317.222222 L21.118705,35 C21.118705,27.6362033 27.0882417,21.6666667 34.4520384,21.6666667 L274.547962,21.6666667 C281.911758,21.6666667 287.881295,27.6362033 287.881295,35 Z" fill="#0A9AD8"/>
    <path d="M287.881295,333.777778 L287.881295,409.333333 C287.881295,416.69713 281.911758,423 274.547962,423 L207.850919,423 C205.39632,423 203.406475,420.676821 203.406475,418.222222 L203.406475,333.777778 C203.406475,331.323179 205.39632,329.333333 207.850919,329.333333 L283.436851,329.333333 C285.891449,329.333333 287.881295,331.323179 287.881295,333.777778 Z" fill="#FFCA3D"/>
    <path d="M196.73741,333.777778 L196.73741,418.222222 C196.73741,420.676821 194.747565,423 192.292966,423 L116.707034,423 C114.252435,423 112.26259,420.676821 112.26259,418.222222 L112.26259,333.777778 C112.26259,331.323179 114.252435,329.333333 116.707034,329.333333 L192.292966,329.333333 C194.747565,329.333333 196.73741,331.323179 196.73741,333.777778 Z" fill="#FE5BA3"/>
    <path d="M105.593525,333.777778 L105.593525,418.222222 C105.593525,420.676821 103.60368,422.666667 101.149081,422.666667 L34.4520384,423 C27.0882417,423 21.118705,416.69713 21.118705,409.333333 L21.118705,333.777778 C21.118705,331.323179 23.1085506,329.333333 25.5631495,329.333333 L101.149081,329.333333 C103.60368,329.333333 105.593525,331.323179 105.593525,333.777778 Z" fill="#4DC17B"/>
    <path d="M154,344 C172.013675,344 186.623932,358.135211 186.623932,375.584507 C186.623932,383.073239 183.935043,389.957746 179.441026,395.359155 C184.668376,401.126761 187,409.03662 187,417.788732 C187,419.216901 186.905983,421.626761 186.717949,423 L121.282051,423 C121.094017,421.626761 121,419.216901 121,417.788732 C121,409.03662 123.331624,401.126761 128.558974,395.359155 C124.064957,389.957746 121.376068,383.073239 121.376068,375.584507 C121.376068,358.135211 135.986325,344 154,344 Z" fill="#FFE934"/>
    <path d="M132.274588,397.216621 C132.765576,396.444021 133.789917,396.21573 134.562517,396.706718 C136.290044,397.804563 138.118258,398.740379 140.057779,399.512994 C144.355593,401.219326 149.102575,402.124189 154,402.124189 C158.897425,402.124189 163.644407,401.219326 167.935605,399.515637 C169.892916,398.728784 171.738844,397.786205 173.437483,396.706718 C174.210083,396.21573 175.234424,396.444021 175.725412,397.216621 C176.2164,397.989221 175.988108,399.013562 175.215508,399.50455 C173.343286,400.694349 171.315978,401.729545 169.165471,402.594048 C164.477709,404.455198 159.31561,405.439191 154,405.439191 C148.68439,405.439191 143.522291,404.455198 138.832761,402.593345 C136.698817,401.743282 134.686104,400.713026 132.784492,399.50455 C132.011892,399.013562 131.7836,397.989221 132.274588,397.216621 Z" fill="#FF9000" fill-rule="nonzero"/>
    <ellipse fill="#000000" fill-rule="nonzero" cx="141.025641" cy="373.478873" rx="4.98290598" ry="5.67605634"/>
    <ellipse fill="#FFFFFF" cx="139.897436" cy="372.105634" rx="1.97435897" ry="2.28873239"/>
    <ellipse fill="#000000" fill-rule="nonzero" cx="166.974359" cy="373.478873" rx="4.98290598" ry="5.67605634"/>
    <path d="M154.188034,376.042254 C156.989744,376.042254 158.287179,377.177465 159.358974,378.349296 L159.490598,378.495775 L159.923077,378.990141 L160.054701,379.13662 L160.186325,379.264789 C160.976068,380.125352 161.822222,380.802817 163.326496,380.802817 C168.271795,380.802817 170.603419,382.285915 170.659829,385.288732 L170.659829,385.380282 L170.659829,385.526761 C170.471795,390.488732 161.558974,393.36338 154.338462,393.43662 L154.112821,393.43662 L154.018803,393.43662 L153.924786,393.43662 C146.666667,393.43662 137.565812,390.543662 137.377778,385.526761 L137.377778,385.380282 C137.377778,382.304225 139.728205,380.802817 144.711111,380.802817 C146.140171,380.802817 146.967521,380.180282 147.719658,379.392958 L147.851282,379.264789 L147.982906,379.13662 L148.11453,378.990141 L148.547009,378.495775 C148.565812,378.477465 148.584615,378.440845 148.603419,378.422535 L148.735043,378.276056 C149.788034,377.140845 151.08547,376.042254 153.830769,376.042254 C153.887179,376.042254 153.962393,376.042254 154.018803,376.042254 C154.05641,376.042254 154.131624,376.042254 154.188034,376.042254 Z" fill="#FF4B00"/>
    <path d="M164.887614,384.050214 C165.723312,383.6766 166.703654,384.051193 167.077269,384.886892 C167.450883,385.72259 167.07629,386.702932 166.240591,387.076546 C163.006835,388.522256 158.958865,389.234966 154.094017,389.234966 C149.22917,389.234966 145.181199,388.522256 141.947443,387.076546 C141.111744,386.702932 140.737151,385.72259 141.110765,384.886892 C141.48438,384.051193 142.464722,383.6766 143.30042,384.050214 C146.066096,385.28666 149.663068,385.919964 154.094017,385.919964 C158.524966,385.919964 162.121938,385.28666 164.887614,384.050214 Z" fill="#921000" fill-rule="nonzero"/>
    <ellipse fill="#FFFFFF" cx="165.65812" cy="372.105634" rx="1.97435897" ry="2.28873239"/>
    <path d="M263.934308,185.848868 C263.934308,185.878165 266.63125,195.01122 268.049316,204.531738 C269.390593,213.536711 269.457271,222.960292 269.457271,222.904869 C269.628084,228.605793 269.855835,236.359048 257.841967,248.559024 C257.955843,248.502015 257.101776,249.414163 250.667809,255.001068 C260.404166,275.923456 263.137179,302.217796 260.745793,322 L44.2684156,322 C41.8200918,301.704713 44.7808555,275.524392 54.3463998,254.944058 C54.289462,254.887049 48.2540591,249.585191 48.3109968,249.6422 C41.8770295,243.371184 35.5,235.104845 35.5,226.154396 C35.5,226.12771 34.8092255,220.916171 35.6767578,210.450195 C36.5442901,199.98422 43.1296603,179.349815 43.5282247,177.753556 C58.8444831,123.537776 111.227226,59.6874342 128.877932,63.6780805 C133.432953,64.7042467 137.931037,70.1771331 142.030556,78.2724442 C144.535817,83.4032753 147.553519,91.7266233 148.122897,93.3798911 C158.143943,93.2658726 156.378872,93.3798911 157.289876,93.3798911 C159.282698,87.5079401 160.649205,84.315423 160.592267,84.3724322 C163.382217,77.5883334 169.303745,65.3313483 176.477903,63.6780805 C194.697987,59.5734157 250.781684,127.927487 263.934308,185.848868 Z" fill="#FFFFFF"/>
    <path d="M122.485196,81.7779011 C126.441435,81.4567223 130.163968,83.7593321 133.944542,87.7686667 C136.482378,90.801159 137.785058,92.3618851 137.852583,92.4508451 C139.562124,94.703064 139.122196,97.9147045 136.869977,99.624245 C134.617758,101.333785 131.406118,100.893858 129.696577,98.6416388 C128.674758,97.3362632 128.141216,96.656039 128.095948,96.6009662 L123.499067,92.2397022 L123.371,92.167 L119.20589,97.6648067 C118.946689,98.0973502 118.04697,99.8512028 116.506733,102.926364 C115.327455,105.496252 112.288155,106.623563 109.718268,105.444284 C107.148381,104.265005 106.02107,101.225706 107.200349,98.6558184 L108.220591,96.498929 C108.663337,95.5941705 109.389812,94.2411188 110.400016,92.4397738 C114.182736,86.0010774 117.972395,82.1083615 122.485196,81.7779011 Z" fill="#CABCB4" fill-rule="nonzero"/>
    <path d="M223.094383,261.91505 C225.572963,260.554291 228.685361,261.460464 230.046119,263.939043 C231.406878,266.417622 230.500706,269.53002 228.022127,270.890779 C224.009399,273.093797 219.773911,275.206394 215.422856,277.201107 C207.86572,280.425439 203.994002,282.074426 203.807701,282.148067 L192.923448,286.160297 C191.814485,286.53996 186.441518,288.163791 176.804547,291.031792 C176.633502,291.076174 173.448875,291.805642 167.250666,293.220195 C161.685025,294.306787 156.763789,294.896426 152.848731,294.896426 C148.102208,294.896426 141.877009,294.038492 134.815685,292.485103 L122.472339,289.306174 C122.293297,289.253959 117.88564,287.825497 109.249371,285.020788 C99.5380508,281.220418 94.4976909,279.240496 94.1282913,279.081024 L81.1859476,272.988031 C79.1294334,271.90702 77.8493147,271.229107 77.3455917,270.954292 C74.8634208,269.600096 73.9490164,266.490106 75.3032122,264.007935 C76.657408,261.525764 79.7673977,260.61136 82.2495685,261.965556 C84.6282161,263.263272 87.0922852,264.52836 89.6153892,265.754367 L102.071596,271.312638 C102.336042,271.421081 115.311988,276.293453 115.574527,276.383235 L130.77923,280.994111 C131.100253,281.078182 135.120922,281.963202 142.841239,283.649171 C146.700601,284.30629 150.096761,284.656974 152.848731,284.656974 C155.299421,284.656974 158.262745,284.375381 161.609901,283.844075 C173.171233,281.174605 179.034643,279.815937 179.200131,279.768072 L189.934112,276.361531 L202.578808,271.604111 C212.565502,267.11305 218.686358,264.270321 220.941377,263.075926 L222.381592,262.304013 C222.620019,262.174689 222.857625,262.045032 223.094383,261.91505 Z" fill="#CABCB4" fill-rule="nonzero"/>
    <path d="M149.261652,203.578739 C153.475046,209.507699 161.218582,213.669373 170.328624,214.182457 L170.328624,216.747872 C170.328624,232.938494 165.545852,246.050618 152.62098,246.050618 C139.866921,246.050618 135.027211,233.166531 134.913335,217.203946 C134.913335,214.923577 134.913335,213.536352 134.913335,213.042272 C141.062614,211.389004 146.130075,208.025459 149.261652,203.578739 Z" fill="#F23C57"/>
    <path d="M99.1557325,187.413611 C101.912362,186.784314 104.657197,188.508858 105.286494,191.265487 C106.871285,198.207652 110.788665,204.154361 116.216511,207.746763 C127.006065,214.887793 140.844992,210.599276 147.310562,197.793663 C148.584967,195.269596 151.664236,194.256545 154.188302,195.530949 C156.712369,196.805354 157.72542,199.884623 156.451016,202.408689 C147.308075,220.517061 126.637277,226.922693 110.56521,216.285449 C102.869338,211.191962 97.4568809,202.975677 95.3038565,193.544372 C94.6745597,190.787743 96.3991033,188.042908 99.1557325,187.413611 Z" fill="#000000" fill-rule="nonzero"/>
    <path d="M197.279391,191.265487 C197.908688,188.508858 200.653523,186.784314 203.410152,187.413611 C206.166781,188.042908 207.891325,190.787743 207.262028,193.544372 C205.109004,202.975677 199.696546,211.191962 192.000675,216.285449 C175.928608,226.922693 155.257809,220.517061 146.114869,202.408689 C144.840465,199.884623 145.853516,196.805354 148.377582,195.530949 C150.901649,194.256545 153.980918,195.269596 155.255323,197.793663 C161.720893,210.599276 175.55982,214.887793 186.349374,207.746763 C191.777219,204.154361 195.6946,198.207652 197.279391,191.265487 Z" fill="#000000" fill-rule="nonzero"/>
    <path d="M151.709976,203.749767 C159.567387,203.749767 170.556375,192.233902 170.556375,182.485323 C170.556375,172.736744 163.723844,171.710578 151.425287,171.710578 C139.12673,171.710578 132.294198,172.736744 132.294198,182.485323 C132.294198,192.233902 143.852564,203.749767 151.709976,203.749767 Z" fill="#000000" fill-rule="nonzero"/>
    <path d="M114.871243,147.823709 C107.013831,149.933051 102.629623,159.054528 103.654503,162.874147 C104.679383,166.693765 112.195168,169.259181 120.052579,167.149839 C127.90999,165.040497 133.034389,158.598454 132.123385,155.234909 C131.212381,151.814355 122.728654,145.714367 114.871243,147.823709 Z" fill="#000000" fill-rule="nonzero"/>
    <path d="M190.598468,147.823709 C198.45588,149.933051 202.840087,159.054528 201.815208,162.874147 C200.790328,166.693765 193.274543,169.259181 185.417132,167.149839 C177.55972,165.040497 172.435322,158.598454 173.346326,155.234909 C174.25733,151.871365 182.684119,145.714367 190.598468,147.823709 Z" fill="#000000" fill-rule="nonzero"/>
    <path d="M170.438948,88.1394031 C174.36979,83.8823391 178.183973,81.4482702 182.204134,81.7747976 C186.662271,82.1014122 190.38855,85.8404257 194.071754,92.0047587 C195.303164,94.1800362 196.198922,95.8500154 196.759028,97.0146963 C197.214238,97.9819064 197.470952,98.5289472 197.529171,98.6558184 C198.70845,101.225706 197.581139,104.265005 195.011252,105.444284 C192.441365,106.623563 189.402065,105.496252 188.222786,102.926364 L185.500926,97.626544 C184.251164,95.4992816 181.614843,92.3843949 181.446291,92.2409333 C179.997518,93.2135884 178.911484,94.0812557 178.18819,94.8439352 L175.032943,98.6416388 C173.323402,100.893858 170.111762,101.333785 167.859543,99.624245 C165.607324,97.9147045 165.167396,94.703064 166.876937,92.4508451 L170.438948,88.1394031 Z" fill="#CABCB4" fill-rule="nonzero"/>
    <path d="M116.487821,157.880367 C118.711356,155.654038 119.432369,152.766366 118.098248,151.430569 C116.764125,150.094773 113.880073,150.816691 111.656535,153.043017 C109.433,155.269346 108.711987,158.157018 110.046108,159.492815 C111.380231,160.828612 114.264283,160.106693 116.487821,157.880367 Z" fill="#FFFFFF"/>
    <path d="M184.824354,158.333705 C187.461717,156.619012 188.766749,153.944566 187.739225,152.360162 C186.7117,150.775757 183.74072,150.881375 181.103355,152.596065 C178.465992,154.310757 177.160959,156.985203 178.188484,158.569608 C179.216009,160.154012 182.186988,160.048394 184.824354,158.333705 Z" fill="#FFFFFF"/>
    <path d="M249.181001,346 C267.90699,346 277.81135,358.708919 278.694849,372.778951 C279.553155,386.447775 278.794317,407.146356 273.906977,423 L225.117257,423 C222.703857,410.516846 219.867809,394.350942 219.914307,381.872314 C216.934013,380.153379 214.958671,378.887998 213.988281,378.076172 C210.429095,375.098564 208.836162,372.742544 209.097609,371.39492 C210.177995,365.826095 214.616147,364.920411 220.94071,365.632607 C224.252465,354.682223 233.707442,346 249.181001,346 Z" fill="#4CBFEA" fill-rule="nonzero"/>
    <path d="M209.047645,373.054292 C213.206031,373.082021 238.133166,380.458323 238.613914,380.543255 C242.528965,381.234916 245.252773,380.452197 246.785337,378.195101 L246.806921,379.608114 C246.414626,408.470029 246.21637,422.933939 246.212153,422.999843 L224.117206,422.999843 C220.625935,410.449613 219.322994,394.423484 219.369491,381.944916 L219.052647,381.760374 C214.02423,378.574672 211.493997,376.967634 211.461948,376.939262 L211.319364,376.81112 C210.097936,375.696481 209.251759,374.4747 209.047645,373.054292 Z" fill="#FFFFFF" fill-rule="nonzero"/>
    <path d="M255.258212,363.704099 C260.220998,364.943849 263.239925,369.977879 262.003229,374.947561 C261.787067,375.816212 260.907651,376.345159 260.039,376.128997 C259.170348,375.912835 258.641401,375.033419 258.857563,374.164768 C259.662509,370.930082 257.698362,367.654887 254.472574,366.849056 C251.247898,366.043504 247.981173,368.010136 247.176503,371.243713 C246.960341,372.112364 246.080925,372.641311 245.212274,372.425149 C244.343622,372.208986 243.814675,371.329571 244.030837,370.460919 C245.26781,365.490128 250.294313,362.464075 255.258212,363.704099 Z" fill="#000000" fill-rule="nonzero"/>
    <path d="M245.558971,375.993115 C246.453201,376.033533 247.145353,376.791215 247.104935,377.685445 C246.936688,381.407872 243.905193,382.770699 239.14882,381.930413 C238.774896,381.864348 237.167829,381.424442 234.327619,380.610696 L228.859353,378.709288 C222.045552,376.357241 216.662441,374.954212 210.220163,374.163136 C209.331693,374.054037 208.699888,373.245348 208.808987,372.356878 C208.918086,371.468408 209.726776,370.836603 210.615246,370.945702 C217.039898,371.734613 222.439138,373.104947 229.048004,375.347615 L235.21257,377.488099 C237.838624,378.255437 239.338692,378.67215 239.712773,378.738238 C242.70938,379.267639 243.745355,378.858775 243.858687,377.654324 C244.396056,376.519906 244.962817,375.96617 245.558971,375.993115 Z" fill="#1683AC" fill-rule="nonzero"/>
    <path d="M257.670251,387.256139 C258.130723,386.550624 259.047427,386.322162 259.778636,386.705617 L259.913407,386.784719 L267.639507,391.827352 C268.052161,392.096681 268.317333,392.537129 268.36624,393.021668 L268.374439,393.18464 L268.374439,413.535268 C268.374439,414.564652 267.42732,415.333261 266.419983,415.121353 C255.840856,412.895886 250.579022,403.715124 250.579022,388.142007 C250.579022,387.246864 251.304679,386.52102 252.199823,386.52102 C253.094966,386.52102 253.820623,387.246864 253.820623,388.142007 C253.820623,401.174827 257.560039,408.77259 264.996016,411.370295 L265.132,411.416 L265.132,394.061 L258.14167,389.499295 C257.436156,389.038823 257.207693,388.122119 257.591149,387.39091 L257.670251,387.256139 Z" fill="#1683AC" fill-rule="nonzero"/>
    <path d="M273.796257,370.794012 C272.927076,371.008038 272.048964,370.476931 271.834938,369.60775 C271.581821,368.579819 271.227236,367.536073 270.775903,366.495061 C269.780424,364.198962 268.334111,361.959359 266.511356,359.930256 C264.688689,357.901303 262.617992,356.22571 260.444308,354.993655 C259.458934,354.43514 258.460788,353.972768 257.467782,353.613174 C256.626125,353.308388 256.190905,352.379012 256.495691,351.537355 C256.800477,350.695698 257.729853,350.260478 258.57151,350.565264 C259.737882,350.987638 260.901227,351.526535 262.042754,352.173558 C264.523917,353.579894 266.868409,355.47704 268.92285,357.763969 C270.977091,360.050792 272.6142,362.585843 273.750014,365.205629 C274.272516,366.410792 274.685469,367.62635 274.982518,368.832693 C275.196545,369.701874 274.665437,370.579986 273.796257,370.794012 Z" fill="#FFFFFF" fill-rule="nonzero"/>
    <path d="M63.5,339 C71.3646684,339 81.8943646,348.352554 86.6400293,359.307498 C92.4317822,372.677244 96,391.787196 96,395.842284 C96,397.557289 94.7684951,399.362899 92.7560664,401.124319 L89.6116395,403.459425 C91.5999016,407.772109 92.5178571,412.789259 92.5178571,418.143239 C92.5178571,419.450696 92.4320759,421.738066 92.265848,423 L34.5683357,423 C34.4021078,421.738066 34.3163265,419.450696 34.3163265,418.143239 C34.3163265,412.920647 35.1897812,408.018556 37.0782414,403.77785 L36.3334697,403.26836 C33.1161603,400.991583 31,398.448072 31,395.842284 C31,391.177691 34.5393752,372.333391 40.2289532,359.215075 C44.9699497,348.283878 55.6353316,339 63.5,339 Z" fill="#112F40" fill-rule="nonzero"/>
    <path d="M63.5518004,377.954367 C66.2665305,377.954367 68.0846458,377.578958 69.5930057,377.141017 L72.3375409,376.283816 C73.3950186,375.983628 74.499227,375.77086 75.9291844,375.794266 C82.8922312,375.908241 83.6540729,391.650436 83.6031241,398.935266 C83.5637755,404.561455 68.8061224,409.591745 63.5,409.591745 C58.1938776,409.591745 42.6071429,404.561455 42.6071429,398.692782 L42.6193466,396.968376 C42.7208189,390.300665 43.6266531,375.721122 51.2288377,375.721122 C52.1852467,375.721122 53.0297559,375.872089 53.8722758,376.095521 L57.5320615,377.200285 C59.0865657,377.61469 60.9694959,377.954367 63.5518004,377.954367 Z" fill="#000000" fill-rule="nonzero"/>
    <path d="M51.2288377,375.721122 C52.1852467,375.721122 53.0297559,375.872089 53.8722758,376.095521 L57.5320615,377.200285 C59.0865657,377.61469 60.9694959,377.954367 63.5518004,377.954367 C66.2665305,377.954367 68.0846458,377.578958 69.5930057,377.141017 L72.3375409,376.283816 C73.3950186,375.983628 74.499227,375.77086 75.9291844,375.794266 C77.4889463,375.819798 78.7375408,376.62953 79.7355352,377.952735 L79.4612524,384.621799 L78.2576531,392.656434 C75.3108426,401.927915 70.405349,404.561455 63.5829082,404.561455 C56.7604674,404.561455 51.8967099,401.927915 48.9498994,392.656434 C48.5716676,390.587405 48.2055146,387.705874 47.8514404,384.011841 C47.6869575,382.295801 47.4373633,377.354686 47.4360229,377.27971 C48.4654856,376.299813 49.7142659,375.721122 51.2288377,375.721122 Z" fill="#FFFFFF" fill-rule="nonzero"/>
    <path d="M63.5,400.537222 C68.2620471,400.537222 72.122449,395.674608 72.122449,392.82411 C72.122449,388.008645 68.2620471,387.123114 63.5,387.123114 C58.7379529,387.123114 54.877551,388.008645 54.877551,392.82411 C54.877551,395.674608 58.7379529,400.537222 63.5,400.537222 Z" fill="#0D222E" fill-rule="nonzero"/>
    <path d="M83.9567679,406.044054 C84.6825222,405.641178 85.5974573,405.902923 86.0003327,406.628678 C86.403208,407.354432 86.1414629,408.269367 85.4157086,408.672242 C83.6636336,409.644841 80.4985321,411.057199 75.9204044,412.909316 C75.487461,413.064209 74.5250319,413.385242 73.0331171,413.872414 C69.247779,415.042102 65.7903718,415.735866 63.5058979,415.735866 C62.1098684,415.735866 58.9255196,415.115598 53.9528516,413.875063 C49.9478276,412.444262 47.8366711,411.68391 47.6193821,411.594005 C44.4283635,410.139822 42.392554,409.170135 41.5119536,408.684944 C40.7849271,408.284369 40.5202858,407.370267 40.9208608,406.643241 C41.3214357,405.916214 42.2355373,405.651573 42.9625638,406.052148 C44.6246363,406.967912 46.4302487,407.828747 48.2728371,408.608271 L57.3005627,411.706162 C59.8053101,412.358968 61.9936395,412.729891 63.5058979,412.729891 C65.0170272,412.729891 67.1982441,412.358751 69.6924828,411.705368 L74.0781569,410.370303 C76.2029175,409.639542 83.5436513,406.27338 83.9567679,406.044054 Z" fill="#000000" fill-rule="nonzero"/>
</svg>