<svg width="480px" height="309px" viewBox="0 0 480 309" version="1.1" xmlns="http://www.w3.org/2000/svg">
<path d="M30.6382979,0 L449.361702,0 C466.282767,0 480,13.7172332 480,30.6382979 L480,278.361702 C480,295.282767 466.282767,309 449.361702,309 L30.6382979,309 C13.7172332,309 0,295.282767 0,278.361702 L0,30.6382979 C0,13.7172332 13.7172332,0 30.6382979,0 Z" fill="#323940"/>
<path d="M36.6666667,21.118705 L352.222222,21.118705 C354.676821,21.118705 356.666667,23.1085506 356.666667,25.5631495 L356.666667,283.436851 C356.666667,285.891449 354.676821,287.881295 352.222222,287.881295 L36.6666667,287.881295 C29.30287,287.881295 23.3333333,281.911758 23.3333333,274.547962 L23.3333333,34.4520384 C23.3333333,27.0882417 29.30287,21.118705 36.6666667,21.118705 Z" fill="#0A9AD8"/>
<path d="M296.701844,158.432578 C296.701844,158.460459 299.269148,167.151877 300.619049,176.212022 C301.895852,184.781551 301.959325,193.749446 301.959325,193.696703 C302.121927,199.121954 302.338731,206.500294 290.902356,218.110329 C291.010757,218.056076 290.197745,218.924116 284.073051,224.240861 C293.341393,244.151529 295.943033,269.174382 293.666598,288 L87.5950489,288 C85.2644132,268.68611 88.0828563,243.771762 97.1885955,224.186609 C97.1343946,224.132356 91.3891068,219.086874 91.4433077,219.141126 C85.3186141,213.173351 79.2481213,205.306739 79.2481213,196.789096 C79.2481213,196.763701 78.5905516,191.80417 79.4163826,181.844286 C80.2422135,171.884403 86.5110323,152.247793 86.8904381,150.728723 C101.470461,99.1345949 151.335223,38.3717942 168.13748,42.1694693 C172.473546,43.1460143 176.755411,48.3542543 180.657871,56.0581094 C183.042707,60.9408345 185.915351,68.8616996 186.45736,70.4350221 C195.996705,70.3265171 194.31648,70.4350221 195.183693,70.4350221 C197.080722,64.8470145 198.381542,61.8088745 198.327341,61.863127 C200.983182,55.4070794 206.620068,43.7427918 213.449372,42.1694693 C230.793637,38.2632892 284.181453,103.312037 296.701844,158.432578 Z" fill="#FFFFFF"/>
<path d="M162.052035,59.3940567 C165.818102,59.0884088 169.361697,61.2796739 172.960543,65.0951335 C175.376388,67.9809869 176.61645,69.4662427 176.680729,69.5509009 C178.308094,71.6942117 177.889313,74.7505505 175.745356,76.3774246 C173.601398,78.0042988 170.544138,77.5856441 168.916773,75.4423333 C167.944072,74.2000803 167.436176,73.5527489 167.393085,73.5003392 L163.01717,69.349968 L162.895259,69.2807814 L158.930362,74.5127367 C158.68362,74.9243642 157.82715,76.5934076 156.360951,79.5198671 C155.238359,81.9654851 152.345155,83.0382839 149.898799,81.9160303 C147.452444,80.7937766 146.379321,77.9014452 147.501913,75.4558272 L148.473114,73.4032361 C148.894577,72.5422281 149.586132,71.2546044 150.547776,69.540365 C154.148666,63.4130176 157.756159,59.7085374 162.052035,59.3940567 Z" fill="#CABCB4" fill-rule="nonzero"/>
<path d="M257.82505,230.820512 C260.184487,229.525554 263.147275,230.387907 264.442624,232.746633 C265.737972,235.105358 264.875359,238.067253 262.515922,239.362211 C258.696082,241.4587 254.664189,243.469141 250.522284,245.367398 C243.328412,248.435814 239.642803,250.005063 239.465457,250.075143 L229.104398,253.893358 C228.048742,254.254662 222.934047,255.799972 213.760315,258.529287 C213.597492,258.571524 210.565947,259.265717 204.665678,260.611869 C199.367572,261.645917 194.682894,262.207043 190.956028,262.207043 C186.437665,262.207043 180.511705,261.390596 173.789811,259.912322 L162.039796,256.887113 C161.86936,256.837423 157.673575,255.478036 149.452441,252.808951 C140.207934,249.192351 135.409858,247.30817 135.058215,247.156409 L122.737996,241.358049 C120.780336,240.329312 119.561751,239.684179 119.082242,239.422653 C116.719386,238.13394 115.848936,235.174337 117.138037,232.812194 C118.427138,230.45005 121.387634,229.579863 123.75049,230.868575 C126.014798,232.10354 128.360422,233.307453 130.762244,234.474175 L142.619694,239.763671 C142.871429,239.86687 155.223636,244.503635 155.473554,244.589075 L169.947384,248.976987 C170.252976,249.056993 174.080376,249.899218 181.429586,251.503659 C185.103433,252.129003 188.336342,252.46273 190.956028,252.46273 C193.288917,252.46273 196.109797,252.194753 199.296059,251.689139 C210.30165,249.148753 215.883213,247.855785 216.040746,247.810235 L226.258756,244.56842 L238.295636,240.04105 C247.80228,235.767158 253.628914,233.061892 255.775536,231.925252 L257.146522,231.190666 C257.373488,231.067595 257.599673,230.944208 257.82505,230.820512 Z" fill="#CABCB4" fill-rule="nonzero"/>
<path d="M187.541376,175.305106 C191.552238,180.947366 198.92355,184.907798 207.595683,185.396071 L207.595683,187.837433 C207.595683,203.245144 203.042813,215.723219 190.739225,215.723219 C178.59824,215.723219 173.991169,203.462154 173.882768,188.271453 C173.882768,186.101353 173.882768,184.781209 173.882768,184.311021 C179.736457,182.737698 184.560331,179.536801 187.541376,175.305106 Z" fill="#F23C57"/>
<path d="M139.843993,159.921657 C142.468114,159.32279 145.081008,160.963942 145.680055,163.587272 C147.188667,170.193742 150.917744,175.852893 156.084679,179.271581 C166.355591,186.0673 179.529296,181.986158 185.684073,169.799772 C186.897219,167.397759 189.828471,166.433694 192.231208,167.646474 C194.633946,168.859253 195.598301,171.789622 194.385155,174.191635 C185.681706,191.42436 166.00453,197.520242 150.70503,187.397371 C143.37909,182.550184 138.226803,174.731206 136.177272,165.755959 C135.578225,163.13263 137.219872,160.520523 139.843993,159.921657 Z" fill="#000000" fill-rule="nonzero"/>
<path d="M233.250956,163.587272 C233.850003,160.963942 236.462897,159.32279 239.087018,159.921657 C241.711139,160.520523 243.352786,163.13263 242.753739,165.755959 C240.704208,174.731206 235.551921,182.550184 228.225981,187.397371 C212.926481,197.520242 193.249305,191.42436 184.545856,174.191635 C183.332711,171.789622 184.297066,168.859253 186.699803,167.646474 C189.102541,166.433694 192.033793,167.397759 193.246938,169.799772 C199.401716,181.986158 212.575421,186.0673 222.846332,179.271581 C228.013267,175.852893 231.742344,170.193742 233.250956,163.587272 Z" fill="#000000" fill-rule="nonzero"/>
<path d="M189.872012,175.467863 C197.351726,175.467863 207.812486,164.508858 207.812486,155.231681 C207.812486,145.954503 201.308387,144.977958 189.601008,144.977958 C177.893629,144.977958 171.389529,145.954503 171.389529,155.231681 C171.389529,164.508858 182.392298,175.467863 189.872012,175.467863 Z" fill="#000000" fill-rule="nonzero"/>
<path d="M154.804076,122.24616 C147.324362,124.253503 143.150898,132.933903 144.126513,136.56882 C145.102128,140.203738 152.256637,142.6451 159.736351,140.637758 C167.216066,138.630415 172.09414,132.499883 171.226927,129.298985 C170.359714,126.043835 162.28379,120.238818 154.804076,122.24616 Z" fill="#000000" fill-rule="nonzero"/>
<path d="M226.891178,122.24616 C234.370892,124.253503 238.544356,132.933903 237.568741,136.56882 C236.593126,140.203738 229.438617,142.6451 221.958902,140.637758 C214.479188,138.630415 209.601113,132.499883 210.468327,129.298985 C211.33554,126.098088 219.357262,120.238818 226.891178,122.24616 Z" fill="#000000" fill-rule="nonzero"/>
<path d="M207.700704,65.4479426 C211.442594,61.3967328 215.073433,59.0803655 218.90035,59.3911033 C223.144189,59.7019242 226.69135,63.2601343 230.197506,69.1263855 C231.369724,71.1964754 232.222424,72.7857013 232.755606,73.894063 C233.188934,74.8145028 233.433309,75.3350909 233.488729,75.4558272 C234.611321,77.9014452 233.538199,80.7937766 231.091844,81.9160303 C228.645488,83.0382839 225.752284,81.9654851 224.629692,79.5198671 L222.038669,74.4763242 C220.848982,72.4519276 218.339385,69.487664 218.178935,69.3511396 C216.799803,70.2767611 215.765974,71.1024716 215.077448,71.828271 L212.07387,75.4423333 C210.446505,77.5856441 207.389244,78.0042988 205.245287,76.3774246 C203.10133,74.7505505 202.682549,71.6942117 204.309914,69.5509009 L207.700704,65.4479426 Z" fill="#CABCB4" fill-rule="nonzero"/>
<path d="M156.342947,131.81652 C158.4596,129.697847 159.145954,126.94981 157.875962,125.678607 C156.60597,124.407404 153.860551,125.094413 151.743896,127.213084 C149.627243,129.331757 148.940889,132.079793 150.210881,133.350996 C151.480873,134.622199 154.226292,133.93519 156.342947,131.81652 Z" fill="#FFFFFF"/>
<path d="M221.394618,132.247935 C223.905206,130.616159 225.147507,128.071038 224.169375,126.563248 C223.191242,125.055459 220.363074,125.15597 217.852484,126.787744 C215.341896,128.419521 214.099595,130.964642 215.077727,132.472431 C216.055861,133.98022 218.884028,133.87971 221.394618,132.247935 Z" fill="#FFFFFF"/>
<path d="M367.777778,21.118705 L443.333333,21.118705 C450.69713,21.118705 456.666667,27.0882417 456.666667,34.4520384 L456.666667,101.149081 C456.666667,103.60368 454.676821,106 452.222222,106 L367.777778,106 C365.323179,106 363.333333,103.60368 363.333333,101.149081 L363.333333,25.5631495 C363.333333,23.1085506 365.323179,21.118705 367.777778,21.118705 Z" fill="#FFCA3D"/>
<path d="M412.856799,32 C430.530407,32 439.878151,44.0487149 440.711998,57.3878366 C441.522068,70.3465915 440.805876,90.9699221 436.1932,106 L390.145414,106 C387.867646,94.1653213 385.190981,77.8392048 385.234865,66.0088176 C382.422061,64.3791776 380.557731,63.1795308 379.641876,62.4098772 C376.282713,59.5869505 374.779301,57.353321 375.026055,56.0757034 C376.045725,50.7961681 380.234456,49.9375325 386.203585,50.6127316 C389.329223,40.2311982 398.252839,32 412.856799,32 Z" fill="#4CBFEA" fill-rule="nonzero"/>
<path d="M375,57.3066667 C378.954922,57.3331455 402.662405,64.3768244 403.119631,64.4579267 C406.843123,65.118398 409.433659,64.3709752 410.891236,62.2156587 L410.911765,63.5649546 C410.538664,91.7920525 410.350108,105.937068 410.346097,106 L389.332228,106 C386.011779,94.0157038 384.77259,77.7122478 384.816812,65.7963817 L384.515471,65.6201615 C379.733087,62.5781136 377.326655,61.043543 377.296174,61.0164498 L377.160567,60.8940862 C375.998902,59.8297103 375.194127,58.6630236 375,57.3066667 Z" fill="#FFFFFF" fill-rule="nonzero"/>
<path d="M418.765951,48.8012353 C423.50437,49.9368399 426.386812,54.5479853 425.206027,59.1001888 C424.999637,59.8958691 424.15998,60.380382 423.3306,60.1823786 C422.50122,59.984375 421.996187,59.178835 422.202576,58.3831546 C422.97113,55.4201989 421.095782,52.420137 418.015831,51.6819999 C414.936943,50.9441181 411.817906,52.7455435 411.049615,55.7074829 C410.843225,56.5031632 410.003568,56.987676 409.174188,56.7896724 C408.344808,56.5916687 407.839775,55.7861287 408.046164,54.9904481 C409.227214,50.4372283 414.026469,47.6653792 418.765951,48.8012353 Z" fill="#000000" fill-rule="nonzero"/>
<path d="M409.460996,60.1811901 C410.299249,60.2197028 410.948074,60.9416737 410.910186,61.7937571 C410.752471,65.3407376 407.910742,66.6393321 403.452107,65.8386504 C403.101589,65.7756991 401.595121,65.3565273 398.932703,64.5811349 L393.806739,62.7693443 C387.419467,60.5281541 382.373328,59.1912529 376.334322,58.4374621 C375.501468,58.333505 374.909213,57.5629307 375.011483,56.7163361 C375.113752,55.8697415 375.87182,55.2677149 376.704673,55.371672 C382.727156,56.1234004 387.788415,57.4291472 393.983581,59.5661135 L399.762258,61.6057124 C402.223926,62.3368841 403.630093,62.7339565 403.980757,62.7969295 C406.789783,63.3013788 407.760909,62.9117851 407.867146,61.7641022 C408.370877,60.6831523 408.90216,60.1555149 409.460996,60.1811901 Z" fill="#1683AC" fill-rule="nonzero"/>
<path d="M421.36914,70.659633 C421.796092,69.988175 422.646065,69.7707412 423.324046,70.1356864 L423.449006,70.2109697 L430.612685,75.0101823 C430.9953,75.2665103 431.241168,75.6856965 431.286516,76.146846 L431.294118,76.3019508 L431.294118,95.6702019 C431.294118,96.6498956 430.415944,97.3814015 429.481936,97.1797233 C419.672917,95.061685 414.794118,86.3241012 414.794118,71.5027382 C414.794118,70.6508056 415.466951,69.96 416.296932,69.96 C417.126913,69.96 417.799746,70.6508056 417.799746,71.5027382 C417.799746,83.9064314 421.266951,91.1374308 428.161627,93.6097383 L428.287712,93.6532367 L428.287712,77.1360064 L421.806243,72.7945067 C421.152086,72.3562628 420.940255,71.4838098 421.295797,70.7878984 L421.36914,70.659633 Z" fill="#1683AC" fill-rule="nonzero"/>
<path d="M435.960864,55.3147199 C435.145842,55.5192204 434.322444,55.0117509 434.121754,54.1812551 C433.884408,53.1990735 433.551917,52.2017812 433.128706,51.207102 C432.195255,49.0131945 430.839061,46.8732692 429.12988,44.9344757 C427.420782,42.9958253 425.479108,41.3948073 423.440866,40.2175873 C422.516889,39.6839301 421.580937,39.2421369 420.649804,38.8985475 C419.86059,38.6073264 419.452488,37.7193139 419.738283,36.9151161 C420.024079,36.1109184 420.895546,35.6950687 421.68476,35.9862898 C422.778456,36.3898652 423.869314,36.9047778 424.939713,37.5230038 C427.266277,38.8667483 429.464685,40.6794586 431.391115,42.864603 C433.317358,45.049647 434.852461,47.4718704 435.917503,49.9750579 C436.407448,51.126583 436.794671,52.2880401 437.073211,53.4406933 C437.273901,54.2711892 436.775886,55.1102195 435.960864,55.3147199 Z" fill="#FFFFFF" fill-rule="nonzero"/>
<path d="M367.777778,112.26259 L452.222222,112.26259 C454.676821,112.26259 456.666667,114.252435 456.666667,116.707034 L456.666667,192.292966 C456.666667,194.747565 454.676821,196.73741 452.222222,196.73741 L367.777778,196.73741 C365.323179,196.73741 363.333333,194.747565 363.333333,192.292966 L363.333333,116.707034 C363.333333,114.252435 365.323179,112.26259 367.777778,112.26259 Z" fill="#FE5BA3"/>
<path d="M367.777778,203.406475 L452.222222,203.406475 C454.676821,203.406475 456.666667,205.39632 456.666667,207.850919 L456.666667,274.547962 C456.666667,281.911758 450.69713,287.881295 443.333333,287.881295 L367.777778,287.881295 C365.323179,287.881295 363.333333,285.891449 363.333333,283.436851 L363.333333,207.850919 C363.333333,205.39632 365.323179,203.406475 367.777778,203.406475 Z" fill="#4DC17B"/>
<path d="M409,210 C416.259694,210 425.979413,218.684515 430.360027,228.856963 C435.706261,241.271726 439,259.016682 439,262.782121 C439,264.374626 437.863226,266.051264 436.0056,267.686868 L433.103052,269.85518 C434.938371,273.859816 435.785714,278.518598 435.785714,283.490151 C435.785714,284.704218 435.706532,286.828204 435.55309,288 L382.293848,288 C382.140407,286.828204 382.061224,284.704218 382.061224,283.490151 C382.061224,278.640601 382.86749,274.088659 384.610684,270.150861 L383.923203,269.677763 C380.953379,267.563613 379,265.201781 379,262.782121 C379,258.450713 382.267116,240.952434 387.519034,228.771141 C391.895338,218.620744 401.740306,210 409,210 Z" fill="#112F40" fill-rule="nonzero"/>
<path d="M409.047816,246.171912 C411.55372,246.171912 413.231981,245.823318 414.624313,245.416659 L417.15773,244.620686 C418.133863,244.34194 419.153133,244.14437 420.473093,244.166105 C426.900521,244.271938 427.60376,258.889691 427.55673,265.654175 C427.520408,270.878494 413.897959,275.549478 409,275.549478 C404.102041,275.549478 389.714286,270.878494 389.714286,265.429012 L389.725551,263.827777 C389.819217,257.636331 390.655372,244.098184 397.672773,244.098184 C398.555612,244.098184 399.335159,244.238368 400.11287,244.445841 L403.491134,245.471693 C404.926061,245.856498 406.66415,246.171912 409.047816,246.171912 Z" fill="#000000" fill-rule="nonzero"/>
<path d="M397.672773,244.098184 C398.555612,244.098184 399.335159,244.238368 400.11287,244.445841 L403.491134,245.471693 C404.926061,245.856498 406.66415,246.171912 409.047816,246.171912 C411.55372,246.171912 413.231981,245.823318 414.624313,245.416659 L417.15773,244.620686 C418.133863,244.34194 419.153133,244.14437 420.473093,244.166105 C421.912874,244.189812 423.065422,244.941706 423.986648,246.170396 L423.733464,252.363099 L422.622449,259.823831 C419.902316,268.433064 415.374168,270.878494 409.076531,270.878494 C402.778893,270.878494 398.289271,268.433064 395.569138,259.823831 C395.220001,257.902591 394.882014,255.226883 394.555176,251.796709 C394.403345,250.203243 394.172951,245.615066 394.171713,245.545445 C395.121987,244.635541 396.274707,244.098184 397.672773,244.098184 Z" fill="#FFFFFF" fill-rule="nonzero"/>
<path d="M409,267.141706 C413.395736,267.141706 416.959184,262.626422 416.959184,259.979531 C416.959184,255.508028 413.395736,254.685749 409,254.685749 C404.604264,254.685749 401.040816,255.508028 401.040816,259.979531 C401.040816,262.626422 404.604264,267.141706 409,267.141706 Z" fill="#0D222E" fill-rule="nonzero"/>
<path d="M427.88317,272.255193 C428.553097,271.881094 429.397653,272.124143 429.769538,272.798058 C430.141423,273.471973 429.899812,274.321555 429.229885,274.695654 C427.612585,275.598781 424.690953,276.910257 420.464989,278.630079 C420.065349,278.773908 419.176953,279.07201 417.7998,279.524385 C414.305642,280.610523 411.114189,281.254733 409.005444,281.254733 C407.716802,281.254733 404.777403,280.67877 400.187248,279.526844 C396.490302,278.198244 394.541543,277.492202 394.340968,277.408719 C391.395412,276.058406 389.516204,275.157982 388.703342,274.707448 C388.03224,274.335486 387.787956,273.486677 388.157718,272.811581 C388.527479,272.136485 389.371265,271.890746 390.042367,272.262709 C391.576587,273.113061 393.243306,273.912408 394.944157,274.636252 L403.277443,277.512865 C405.589517,278.119042 407.609513,278.46347 409.005444,278.46347 C410.400333,278.46347 412.413764,278.118841 414.716138,277.512128 L418.764453,276.272424 C420.72577,275.593861 427.501832,272.468139 427.88317,272.255193 Z" fill="#000000" fill-rule="nonzero"/>
<path d="M410,123.377698 C426.982589,123.377698 440.756569,136.671993 440.756569,153.083215 C440.756569,160.126436 438.221589,166.601378 433.984805,171.681452 C438.912947,177.105938 441.111111,184.545233 441.111111,192.776674 C441.111111,194.11988 441.022475,195.445866 440.845204,196.73741 L379.154796,196.73741 C378.977525,195.445866 378.888889,194.11988 378.888889,192.776674 C378.888889,184.545233 381.087053,177.105938 386.015195,171.681452 C381.778411,166.601378 379.243431,160.126436 379.243431,153.083215 C379.243431,136.671993 393.017411,123.377698 410,123.377698 Z" fill="#FFE934"/>
<path d="M428.332158,172.953987 C429.055956,172.495111 430.014703,172.709873 430.473579,173.433672 C430.932455,174.15747 430.717693,175.116218 429.993895,175.575094 C428.229457,176.693718 426.318863,177.666986 424.292214,178.479753 C419.87438,180.229546 415.009533,181.154662 410,181.154662 C404.990467,181.154662 400.12562,180.229546 395.706133,178.479097 C393.695071,177.679898 391.798249,176.711283 390.006105,175.575094 C389.282307,175.116218 389.067545,174.15747 389.526421,173.433672 C389.985297,172.709873 390.944044,172.495111 391.667842,172.953987 C393.29711,173.986915 395.021363,174.867408 396.850618,175.594358 C400.904035,177.199814 405.381082,178.051185 410,178.051185 C414.618918,178.051185 419.095965,177.199814 423.143196,175.596823 C424.989185,174.856494 426.730127,173.969648 428.332158,172.953987 Z" fill="#FF9000" fill-rule="nonzero"/>
<ellipse fill="#000000" fill-rule="nonzero" cx="397.768281" cy="151.102847" rx="4.69768914" ry="5.33838281"/>
<ellipse fill="#FFFFFF" cx="396.704653" cy="149.811303" rx="1.86134853" ry="2.15257372"/>
<ellipse fill="#000000" fill-rule="nonzero" cx="422.231719" cy="151.102847" rx="4.69768914" ry="5.33838281"/>
<path d="M410.177271,153.51373 C412.818613,153.51373 414.041785,154.581406 415.052232,155.683524 L415.176322,155.821289 L415.584046,156.286245 L415.708135,156.42401 L415.832225,156.544554 C416.576765,157.353921 417.374486,157.991083 418.792656,157.991083 C423.454891,157.991083 425.653055,159.385951 425.706236,162.210128 L425.706236,162.296231 L425.706236,162.433995 C425.528965,167.100775 417.126306,169.804408 410.319088,169.87329 L410.106363,169.87329 L410.017727,169.87329 L409.929091,169.87329 C403.08642,169.87329 394.506489,167.152437 394.329218,162.433995 L394.329218,162.296231 C394.329218,159.403172 396.545109,157.991083 401.242798,157.991083 C402.59006,157.991083 403.370054,157.405583 404.079139,156.665098 L404.203229,156.544554 L404.327319,156.42401 L404.451409,156.286245 L404.859133,155.821289 C404.87686,155.804068 404.894587,155.769627 404.912314,155.752407 L405.036404,155.614642 C406.029123,154.546965 407.252295,153.51373 409.840456,153.51373 C409.893637,153.51373 409.964546,153.51373 410.017727,153.51373 C410.053181,153.51373 410.12409,153.51373 410.177271,153.51373 Z" fill="#FF4B00"/>
<path d="M420.270123,161.05126 C421.052808,160.702182 421.970283,161.05369 422.319361,161.836375 C422.668439,162.61906 422.316931,163.536535 421.534246,163.885613 C418.487483,165.244471 414.673155,165.91444 410.088636,165.91444 C405.504116,165.91444 401.689789,165.244471 398.643025,163.885613 C397.86034,163.536535 397.508832,162.61906 397.85791,161.836375 C398.206988,161.05369 399.124463,160.702182 399.907149,161.05126 C402.516416,162.214994 405.909442,162.810963 410.088636,162.810963 C414.26783,162.810963 417.660856,162.214994 420.270123,161.05126 Z" fill="#921000" fill-rule="nonzero"/>
<ellipse fill="#FFFFFF" cx="420.99082" cy="149.811303" rx="1.86134853" ry="2.15257372"/>
</svg>