<?xml version="1.0" encoding="UTF-8"?>
<svg width="557px" height="210px" viewBox="0 0 557 210" version="1.1" xmlns="http://www.w3.org/2000/svg" xmlns:xlink="http://www.w3.org/1999/xlink">
    <title>record_audio</title>
    <g id="record_audio" stroke="none" stroke-width="1" fill="none" fill-rule="evenodd">
        <rect id="Rectangle" fill="#323940" x="0" y="0" width="557" height="210" rx="30.6382979"></rect>
        <path d="M115,174 C125.213694,174 134.909071,171.780821 143.630262,167.798331 C167.448138,156.922013 184,132.893954 184,105 C184,66.8923523 153.107648,36 115,36 C76.8923523,36 46,66.8923523 46,105 C46,143.107648 76.8923523,174 115,174 Z" id="Oval" fill="#32B4FF"></path>
        <path d="M329,67 C332.313708,67 335,69.6862915 335,73 L335,139 C335,142.313708 332.313708,145 329,145 C325.686292,145 323,142.313708 323,139 L323,73 C323,69.6862915 325.686292,67 329,67 Z" id="Path" fill="#32B4FF"></path>
        <path d="M257,70 C260.313708,70 263,72.6862915 263,76 L263,136 C263,139.313708 260.313708,142 257,142 C253.686292,142 251,139.313708 251,136 L251,76 C251,72.6862915 253.686292,70 257,70 Z" id="Path" fill="#32B4FF"></path>
        <path d="M449,70 C452.313708,70 455,72.6862915 455,76 L455,136 C455,139.313708 452.313708,142 449,142 C445.686292,142 443,139.313708 443,136 L443,76 C443,72.6862915 445.686292,70 449,70 Z" id="Path" fill="#2DC2FF"></path>
        <path d="M281,76 C284.313708,76 287,78.6862915 287,82 L287,130 C287,133.313708 284.313708,136 281,136 C277.686292,136 275,133.313708 275,130 L275,82 C275,78.6862915 277.686292,76 281,76 Z" id="Path" fill="#32B4FF"></path>
        <path d="M473,76 C476.313708,76 479,78.6862915 479,82 L479,130 C479,133.313708 476.313708,136 473,136 C469.686292,136 467,133.313708 467,130 L467,82 C467,78.6862915 469.686292,76 473,76 Z" id="Path" fill="#2CC5FF"></path>
        <path d="M353,76 C356.313708,76 359,78.6862915 359,82 L359,130 C359,133.313708 356.313708,136 353,136 C349.686292,136 347,133.313708 347,130 L347,82 C347,78.6862915 349.686292,76 353,76 Z" id="Path" fill="#31B6FF"></path>
        <path d="M401,79 C404.313708,79 407,81.6862915 407,85 L407,127 C407,130.313708 404.313708,133 401,133 C397.686292,133 395,130.313708 395,127 L395,85 C395,81.6862915 397.686292,79 401,79 Z" id="Path" fill="#2FBCFF"></path>
        <path d="M233,85 C236.313708,85 239,87.6862915 239,91 L239,121 C239,124.313708 236.313708,127 233,127 C229.686292,127 227,124.313708 227,121 L227,91 C227,87.6862915 229.686292,85 233,85 Z" id="Path" fill="#32B4FF"></path>
        <path d="M425,85 C428.313708,85 431,87.6862915 431,91 L431,121 C431,124.313708 428.313708,127 425,127 C421.686292,127 419,124.313708 419,121 L419,91 C419,87.6862915 421.686292,85 425,85 Z" id="Path" fill="#2FC0FF"></path>
        <path d="M305,85 C308.313708,85 311,87.6862915 311,91 L311,121 C311,124.313708 308.313708,127 305,127 C301.686292,127 299,124.313708 299,121 L299,91 C299,87.6862915 301.686292,85 305,85 Z" id="Path" fill="#32B4FF"></path>
        <path d="M497,85 C500.313708,85 503,87.6862915 503,91 L503,121 C503,124.313708 500.313708,127 497,127 C493.686292,127 491,124.313708 491,121 L491,91 C491,87.6862915 493.686292,85 497,85 Z" id="Path" fill="#2CCAFF"></path>
        <path d="M377,85 C380.313708,85 383,87.6862915 383,91 L383,121 C383,124.313708 380.313708,127 377,127 C373.686292,127 371,124.313708 371,121 L371,91 C371,87.6862915 373.686292,85 377,85 Z" id="Path" fill="#31B9FF"></path>
        <path d="M114.561051,129.440127 L115.438949,129.440127 C117.150762,129.440127 118.538462,130.827827 118.538462,132.53964 L118.538462,138.900487 C118.538462,140.612301 117.150762,142 115.438949,142 L114.561051,142 C112.849238,142 111.461538,140.612301 111.461538,138.900487 L111.461538,132.53964 C111.461538,130.827827 112.849238,129.440127 114.561051,129.440127 Z" id="Rectangle" fill="#FFFFFF"></path>
        <path d="M115.20483,76 C122.244797,76 127.951818,81.7070209 127.951818,88.746988 L127.951818,108.878392 C127.951818,115.918359 122.244797,121.62538 115.20483,121.62538 C108.164863,121.62538 102.457842,115.918359 102.457842,108.878392 L102.457842,88.746988 C102.457842,81.7070209 108.164863,76 115.20483,76 Z" id="Rectangle" fill="#FFFFFF"></path>
        <path d="M92,106.803745 C93.5748876,106.803745 94.8515862,108.080444 94.8515862,109.655331 C94.8515862,119.579043 103.935445,128.047317 115,128.047317 C126.190059,128.047317 135.148414,119.97502 135.148414,110.173801 C135.148414,108.598914 136.425112,107.322215 138,107.322215 C139.574888,107.322215 140.851586,108.598914 140.851586,110.173801 C140.851586,123.264898 129.21504,133.750489 115,133.750489 C100.871624,133.750489 89.1484138,122.821724 89.1484138,109.655331 C89.1484138,108.080444 90.4251124,106.803745 92,106.803745 Z" id="Path" fill="#FFFFFF" fill-rule="nonzero"></path>
    </g>
</svg>