<?xml version="1.0" encoding="UTF-8"?>
<svg width="88px" height="88px" viewBox="0 0 88 88" version="1.1" xmlns="http://www.w3.org/2000/svg" xmlns:xlink="http://www.w3.org/1999/xlink">
    <g id="Artboard" stroke="none" stroke-width="1" fill="#FFFFFF" fill-rule="evenodd">
        <path d="M41.686586,70.896919 L21.36595,83.328375 C19.503784,84.467583 17.069421,83.883578 15.928649,82.023964 C15.371494,81.115724 15.205381,80.02123 15.468016,78.98891 L18.762458,66.039665 C19.828499,61.849451 22.657254,58.324471 26.520182,56.372579 L44.396341,47.339965 C45.380883,46.842487 45.775174,45.642165 45.277013,44.658972 C44.886697,43.888624 44.044501,43.456378 43.190057,43.587869 L22.972666,46.699124 C18.236712,47.42794 13.415933,46.083639 9.743221,43.01002 L1.414466,36.039852 C-0.259312,34.639101 -0.479086,32.148562 0.923588,30.477078 C1.605799,29.664126 2.586831,29.159436 3.645723,29.07668 L27.457159,27.215753 C29.076614,27.089188 30.487928,26.065729 31.109622,24.567055 L40.289194,2.438496 C41.124983,0.423717 43.438066,-0.532971 45.45561,0.301673 C46.424366,0.70244 47.194047,1.471067 47.595365,2.438496 L56.774938,24.567055 C57.396631,26.065729 58.807946,27.089188 60.4274,27.215753 L84.354172,29.085694 C86.531325,29.255845 88.158133,31.156291 87.987749,33.33046 C87.905784,34.376362 87.410411,35.346699 86.610961,36.027316 L68.362443,51.563278 C67.124975,52.616803 66.585104,54.27524 66.965673,55.854042 L72.575639,79.127134 C73.086724,81.247387 71.779878,83.37994 69.656716,83.890325 C68.636522,84.135569 67.560549,83.965797 66.665764,83.418399 L46.197973,70.896919 C44.813725,70.050084 43.070834,70.050084 41.686586,70.896919 Z" id="Star-Copy-2"></path>
    </g>
</svg>