<?xml version="1.0" encoding="UTF-8"?>
<svg width="84px" height="84px" viewBox="0 0 84 84" version="1.1" xmlns="http://www.w3.org/2000/svg" xmlns:xlink="http://www.w3.org/1999/xlink">
    <g id="Symbols" stroke="none" stroke-width="1" fill="none" fill-rule="evenodd">
        <path d="M42,4.47368421 C20.6965784,4.47368421 3.47368421,20.3318528 3.47368421,39.8304382 C3.47368421,49.3322624 7.57680272,58.241145 14.7631844,64.8330639 L15.2916573,65.3178211 L15.2363061,66.0328103 C15.0965468,67.8381284 14.774062,69.5771277 14.2288664,71.2486595 C13.6855274,72.9144993 12.3686279,75.6108717 10.2589789,79.4047264 C10.2508146,79.4194086 10.2473644,79.4362469 10.2490966,79.4529569 C10.2537587,79.4979329 10.2939983,79.5306137 10.3312038,79.5267778 L10.9687245,79.4572959 C15.9292735,78.8895266 20.0030759,77.7763368 23.1902273,76.1332316 C24.567903,75.4229842 26.1724397,74.4961865 28.0019297,73.3530173 L28.5828466,72.9900275 L29.2348341,73.2001187 C33.2997668,74.5099698 37.5984896,75.1871923 42,75.1871923 C63.3034216,75.1871923 80.5263158,59.3290237 80.5263158,39.8304382 C80.5263158,20.3318528 63.3034216,4.47368421 42,4.47368421 Z" id="shape" fill="#FFFFFF"></path>
        <path d="M9.68078613,24.6137047 C9.8721537,24.8136848 10.1894036,24.8206666 10.3893837,24.629299 C10.3964827,24.6225057 10.4033805,24.6155051 10.410082,24.6083194 C20.5178445,13.7276637 31.3141669,8.50123177 42.7990494,8.92902374 C54.2584365,9.35586606 64.9235425,15.3681505 74.7943671,26.9658769 C75.0309355,27.243826 75.4426222,27.2904538 75.7353592,27.0724506 C76.0315877,26.8518473 76.1075038,26.440096 75.9094038,26.1283693 C67.7821181,13.3374534 56.7453333,6.69089625 42.7990494,6.18869781 C28.8220513,5.68539338 17.7581791,11.5492352 9.60743269,23.7802233 C9.4336795,24.0409463 9.46416665,24.3873362 9.68078613,24.6137047 Z" id="line1" fill="#FFFFFF"></path>
    </g>
</svg>